<ttFont>
          <CharString index="0">
            -96 callgsubr
            108 callgsubr
            -24 -434 rmoveto
            65 174 rlineto
            13 34 30 101 0 vvcurveto
            5 hlineto
            0 30 -101 13 -34 vhcurveto
            65 -174 rlineto
            return
          </CharString>
          <CharString index="1">
            96 -28 vlineto
            -18 -17 10 25 hvcurveto
            232 vlineto
            108 -68 63 -147 -129 -85 -58 -88 -9 0 -7 1 -6 vhcurveto
            132 15 hlineto
            21 18 26 67 63 11 -33 -40 vhcurveto
            -37 vlineto
            return
          </CharString>
          <CharString index="2">
            -188 -130 -44 -142 -128 106 -20 57 hvcurveto
            43 108 rmoveto
            -47 -20 24 31 65 87 15 92 hvcurveto
            -16 vlineto
            -66 -30 -53 -82 vhcurveto
            return
          </CharString>
          <CharString index="3">
            rmoveto
            -107 callsubr
            endchar
          </CharString>
          <CharString index="4">
            rmoveto
            -105 callgsubr
            endchar
          </CharString>
          <CharString index="5">
            rmoveto
            105 hlineto
            108 129 -1 3 rlineto
            -133 hlineto
            return
          </CharString>
          <CharString index="6">
            rmoveto
            122 hlineto
            105 -8 callsubr
            -111 hlineto
            -55 -69 -56 69 rlineto
            -111 hlineto
            return
          </CharString>
          <CharString index="7">
            rmoveto
            127 51 95 114 41 hvcurveto
            177 499 rlineto
            -139 hlineto
            -78 -248 rlineto
            -14 -46 -23 -90 0 vvcurveto
            -5 hlineto
            0 -21 96 -16 41 vhcurveto
            -99 247 rlineto
            -143 hlineto
            206 -526 rlineto
            -52 -19 -28 -21 -46 hhcurveto
            -65 -96 hlineto
            0 36 -13 58 vhcurveto
            return
          </CharString>
          <CharString index="8">
            -72 callgsubr
            -44 13 39 -25 54 hhcurveto
            39 26 9 7 14 hvcurveto
            return
          </CharString>
          <CharString index="9">
            545 123 -400 166 350 123 -350 151 394 123 -539 hlineto
            return
          </CharString>
          <CharString index="10">
            18 -3 42 0 vhcurveto
            5 3 rlineto
            0 19 -38 20 -28 vhcurveto
            265 -376 rlineto
            141 116 callgsubr
            -379 hlineto
            -69 callgsubr
            return
          </CharString>
          <CharString index="11">
            173 105 90 176 hvcurveto
            432 -145 -174 vlineto
            -119 -48 -62 -87 -68 -40 38 73 vhcurveto
            244 -145 -241 vlineto
            -149 70 -88 145 75 59 24 56 35 vhcurveto
            4 -56 hlineto
            -80 -50 -41 -83 -70 -40 20 37 vhcurveto
            -145 -7 hlineto
            return
          </CharString>
          <CharString index="12">
            -93 callsubr
            -14 hlineto
            return
          </CharString>
          <CharString index="13">
            13 51 8 64 0 vvcurveto
            5 hlineto
            0 12 -66 12 -50 vhcurveto
            60 -251 rlineto
            142 hlineto
            156 526 rlineto
            -130 hlineto
            -54 -218 rlineto
            -14 -56 -18 -93 0 vvcurveto
            -4 hlineto
            0 -20 101 -13 48 vhcurveto
            -57 218 rlineto
            -141 hlineto
            -54 -217 rlineto
            -11 -45 -21 -105 0 vvcurveto
            -4 hlineto
            0 -21 114 -10 37 vhcurveto
            -57 216 115 callsubr
          </CharString>
          <CharString index="14">
            -88 callgsubr
            5 callgsubr
            hvcurveto
            return
          </CharString>
          <CharString index="15">
            rmoveto
            171 122 60 154 hvcurveto
            hintmask 11101010
            -36 callsubr
            hintmask 11101100
            -73 callgsubr
            hintmask 11101010
            -36 callgsubr
            hintmask 11110010
            -95 -53 38 58 hvcurveto
            5 1 9 2 vvcurveto
            -147 hlineto
            -5 -1 -9 -8 vvcurveto
            -141 135 -72 153 vhcurveto
            endchar
          </CharString>
          <CharString index="16">
            -47 -21 28 20 -3 hvcurveto
            -90 hlineto
            -64 45 -73 116 vhcurveto
            return
          </CharString>
          <CharString index="17">
            -731 rmoveto
            -107 callsubr
            return
          </CharString>
          <CharString index="18">
            63 45 50 62 57 34 -25 -68 vhcurveto
            -324 137 353 vlineto
            136 -73 49 -101 return
          </CharString>
          <CharString index="19">
            -735 -106 callgsubr
            return
          </CharString>
          <CharString index="20">
            -62 callgsubr
            hintmask 01111100
            -82 callgsubr
            hintmask 10111100
            -100 callgsubr
            vhcurveto
            endchar
          </CharString>
          <CharString index="21">
            -75 callsubr
            hintmask 10111110
            -87 callgsubr
            hintmask 01111101
            13 -76 rlineto
            100 373 -353 hlineto
            endchar
          </CharString>
          <CharString index="22">
            rmoveto
            107 31 71 70 hvcurveto
            567 -137 -553 vlineto
            -23 callgsubr
            -8 22 41 -8 31 hhcurveto
            endchar
          </CharString>
          <CharString index="23">
            457 112 -259 hlineto
            250 354 rlineto
            60 -433 -112 234 vlineto
            -249 -353 rlineto
            return
          </CharString>
          <CharString index="24">
            rmoveto
            173 134 85 181 hvcurveto
            -144 hlineto
            -91 -64 -52 -96 -128 -58 76 141 vhcurveto
            30 vlineto
            136 58 81 128 vhcurveto
            hintmask 11111000
            89 66 -52 -92 hvcurveto
            149 hlineto
            181 -137 86 -170 -206 -126 -113 -242 vhcurveto
            hintmask 11110100
            -252 126 -103 206 vhcurveto
            endchar
          </CharString>
          <CharString index="25">
            -57 -34 25 68 hvcurveto
            294 -137 -323 -17 callsubr
            4 hlineto
            -1 -40 rlineto
            -86 -1 -37 -43 -88 hhcurveto
            return
          </CharString>
          <CharString index="26">
            69 16 44 43 75 vvcurveto
            -134 hlineto
            -19 -12 -43 -45 -29 vhcurveto
            10 -30 -36 5 -40 hhcurveto
            -152 -81 -71 -108 -62 26 -49 51 -31 hvcurveto
            return
          </CharString>
          <CharString index="27">
            736 -102 callsubr
            return
          </CharString>
          <CharString index="28">
            39 21 -21 131 121 309 125 return
          </CharString>
          <CharString index="29">
            -12 -71 callgsubr
            return
          </CharString>
          <CharString index="30">
            733 -99 callgsubr
            return
          </CharString>
          <CharString index="31">
            -88 -360 rmoveto
            -31 -22 19 28 26 23 20 30 hvcurveto
            193 hlineto
            30 24 -16 -30 -28 -26 -19 -34 hvcurveto
            endchar
          </CharString>
          <CharString index="32">
            rmoveto
            208 hlineto
            -91 -2 -82 -52 -104 hhcurveto
            -131 -62 71 146 hvcurveto
            30 vlineto
            138 66 79 142 vhcurveto
            return
          </CharString>
          <CharString index="33">
            -905 -41 callsubr
            hintmask 1111101010000000
            -74 callgsubr
            hintmask 1111100100100000
            -81 callsubr
            hintmask 1111101010000000
            -27 callsubr
            hintmask 1111110010000000
            59 callsubr
            hintmask 1111110001000000
            89 callsubr
            hintmask 1111100110000000
            -64 callgsubr
            hintmask 1111110001000000
            -76 callsubr
          </CharString>
          <CharString index="34">
            569 123 -355 hlineto
            346 494 rlineto
            69 -534 -123 321 vlineto
            -347 -495 rlineto
            return
          </CharString>
          <CharString index="35">
            -16 0 -69 callsubr
            return
          </CharString>
          <CharString index="36">
            -209 -500 rmoveto
            -7 callsubr
            30 vlineto
            136 66 81 132 133 66 -81 -136 vhcurveto
            return
          </CharString>
          <CharString index="37">
            rmoveto
            116 46 73 64 hvcurveto
            -90 hlineto
            return
          </CharString>
          <CharString index="38">
            123 166 -40 callgsubr
            return
          </CharString>
          <CharString index="39">
            -53 callgsubr
            hintmask 11111010
            -82 callsubr
            hintmask 11110110
            -44 callgsubr
          </CharString>
          <CharString index="40">
            85 44 28 41 35 hvcurveto
            6 hlineto
            return
          </CharString>
          <CharString index="41">
            -102 callgsubr
            -25 -42 callgsubr
            return
          </CharString>
          <CharString index="42">
            -13 -32 -26 -21 -41 -12 rrcurveto
            48 -59 -81 24 -99 hhcurveto
            -34 callgsubr
            return
          </CharString>
          <CharString index="43">
            -86 -189 -189 return
          </CharString>
          <CharString index="44">
            284 hlineto
            204 124 109 234 234 -124 109 -204 hvcurveto
            return
          </CharString>
          <CharString index="45">
            hstemhm
            29 139 -113 133 return
          </CharString>
          <CharString index="46">
            72 hlineto
            63 104 rlineto
            86 -138 -98 55 vlineto
            endchar
          </CharString>
          <CharString index="47">
            -13 -34 -29 -21 -44 -12 rrcurveto
            38 -45 -63 18 -82 hhcurveto
            -6 callgsubr
            return
          </CharString>
          <CharString index="48">
            rmoveto
            440 139 vlineto
            119 60 -77 -128 hvcurveto
            -30 vlineto
            -128 -60 -77 -119 vhcurveto
            return
          </CharString>
          <CharString index="49">
            95 -78 callsubr
            return
          </CharString>
          <CharString index="50">
            731 -70 callsubr
            -46 callgsubr
            -91 callsubr
            return
          </CharString>
          <CharString index="51">
            111 hlineto
            return
          </CharString>
          <CharString index="52">
            rmoveto
            151 83 70 135 hvcurveto
            493 -146 -491 vlineto
            -54 -29 -31 -59 -61 -31 31 54 vhcurveto
            return
          </CharString>
          <CharString index="53">
            -91 callsubr
            -85 -42 callsubr
            return
          </CharString>
          <CharString index="54">
            rmoveto
            85 hlineto
            41 59 rlineto
            -14 37 45 -8 52 hhcurveto
            179 89 86 189 100 -25 70 -50 45 hvcurveto
            68 97 rlineto
            -84 hlineto
            -42 -60 rlineto
            15 -37 -45 8 -53 hhcurveto
            -178 -89 -86 -189 -100 25 -71 49 -45 hvcurveto
            82 117 rmoveto
            -10 24 -5 30 37 vvcurveto
            16 vlineto
            101 35 54 91 25 22 -5 -8 17 vhcurveto
            -64 -313 rmoveto
            -25 -21 4 8 -17 hvcurveto
            175 250 rlineto
            10 -24 5 -31 -36 vvcurveto
            -16 vlineto
            -101 -35 -54 -92 vhcurveto
            endchar
          </CharString>
          <CharString index="55">
            16 callsubr
            -14 callsubr
            298 145 -57 158 hintmask 00000000
            hintmask 10111010
            -11 callgsubr
            hintmask 10111100
            -76 callgsubr
            hintmask 11011100
            365 vlineto
            hintmask 11011010
            40 callsubr
            return
          </CharString>
          <CharString index="56">
            -31 callgsubr
            -73 -49 -34 -39 -32 vhcurveto
            -7 return
          </CharString>
          <CharString index="57">
            -72 -12 -43 callgsubr
            return
          </CharString>
          <CharString index="58">
            -64 callsubr
            84 -86 return
          </CharString>
          <CharString index="59">
            45 39 -37 48 hhcurveto
            return
          </CharString>
          <CharString index="60">
            -45 -39 37 -49 hhcurveto
            return
          </CharString>
          <CharString index="61">
            39 0 123 189 85 166 123 -25 callsubr
            318 149 vstem
            351 686 rmoveto
            -284 -289 -63 -85 63 -312 -63 callsubr
            179 -358 rmoveto
            -128 -60 -77 -119 vhcurveto
            -139 189 139 85 -139 166 139 hlineto
            119 60 -77 -128 hvcurveto
            endchar
          </CharString>
          <CharString index="62">
            91 121 rlineto
            -94 hlineto
            -58 -78 rlineto
            28 -53 -64 13 -74 hhcurveto
            -215 -132 -113 -242 -123 34 -90 62 -58 hvcurveto
            87 116 rmoveto
            -23 36 -11 47 57 vvcurveto
            30 vlineto
            136 66 81 132 44 36 -9 -17 29 vhcurveto
            -109 -438 rmoveto
            -43 -36 8 17 -29 hvcurveto
            272 362 rlineto
            23 -36 12 -47 -57 vvcurveto
            121 callgsubr
          </CharString>
          <CharString index="63">
            rmoveto
            305 88 -305 hlineto
            return
          </CharString>
          <CharString index="64">
            -107 -152 -21 161 83 callsubr
            52 4 callgsubr
            hintmask 10111100
            52 -173 rmoveto
            137 hlineto
            hintmask 11011100
            97 vlineto
            16 -2 29 -6 50 vhcurveto
            -22 20 31 -9 32 hhcurveto
            59 42 31 50 25 hvcurveto
            7 hlineto
            hintmask 10111100
            -82 callgsubr
            hintmask 11011100
            -63 -45 -50 -62 -57 -34 25 68 vhcurveto
            324 -137 vlineto
            endchar
          </CharString>
          <CharString index="65">
            -598 -99 callsubr
            return
          </CharString>
          <CharString index="66">
            rmoveto
            249 hlineto
            109 87 64 98 86 -61 55 -75 hvcurveto
            return
          </CharString>
          <CharString index="67">
            rmoveto
            137 254 hlineto
            hintmask 11001100
            96 36 51 91 vhcurveto
            38 hlineto
            hintmask 10011100
            128 vlineto
            hintmask 11001100
            -18 callsubr
            hintmask 10101100
            -11 85 41 callsubr
          </CharString>
          <CharString index="68">
            38 141 253 141 return
          </CharString>
          <CharString index="69">
            736 -101 callgsubr
            return
          </CharString>
          <CharString index="70">
            -268 686 rlineto
            return
          </CharString>
          <CharString index="71">
            248 -418 -61 122 vvcurveto
            40 45 24 85 vhcurveto
            return
          </CharString>
          <CharString index="72">
            rmoveto
            75 53 39 66 hvcurveto
            hintmask 1010110110010000
            66 callsubr
            hintmask 1011010110101000
            -1 callsubr
            -12 83 8 vlineto
            7 callgsubr
            hintmask 1010110110010000
            -34 -69 hlineto
            hintmask 1010110111000100
            -12 callsubr
            vlineto
            return
          </CharString>
          <CharString index="73">
            -81 callgsubr
            88 callsubr
            return
          </CharString>
          <CharString index="74">
            10 callsubr
            397 149 return
          </CharString>
          <CharString index="75">
            64 vstem
            368 -12 rmoveto
            196 159 159 196 196 -159 159 -196 -196 -159 -159 -196 -196 159 -159 196 hvcurveto
            62 vmoveto
            -161 -130 131 162 161 130 132 161 161 130 -132 -161 -162 -130 -131 -161 hvcurveto
            return
          </CharString>
          <CharString index="76">
            19 callgsubr
            132 -9 callgsubr
            return
          </CharString>
          <CharString index="77">
            47 23 -28 -20 2 hvcurveto
            90 hlineto
            return
          </CharString>
          <CharString index="78">
            67 145 return
          </CharString>
          <CharString index="79">
            -72 -182 95 93 115 59 93 172 93 return
          </CharString>
          <CharString index="80">
            -53 -13 -40 -33 -46 vvcurveto
            -36 19 -27 32 -16 vhcurveto
            return
          </CharString>
          <CharString index="81">
            hstem
            -33 callsubr
            vstem
            return
          </CharString>
          <CharString index="82">
            hstem
            -29 callsubr
            return
          </CharString>
          <CharString index="83">
            41 hlineto
            32 10 -8 -16 -19 -17 -5 -28 hvcurveto
            -88 hlineto
            return
          </CharString>
          <CharString index="84">
            112 131 91 return
          </CharString>
          <CharString index="85">
            126 callsubr
            155 hlineto
            70 68 115 -223 rlineto
            157 hlineto
            -184 324 174 202 rlineto
            -158 hlineto
            -174 -209 rlineto
            return
          </CharString>
          <CharString index="86">
            10 callgsubr
            195 60 callsubr
            hintmask 11111011
            195 906 rmoveto
            70 hlineto
            hintmask 11110111
            -57 callgsubr
            hintmask 11111011
            -48 callsubr
            hintmask 11110111
            -68 callgsubr
            hintmask 11111011
            -48 callgsubr
            hhcurveto
            hintmask 11110111
            -47 callsubr
            hintmask 11111011
            -47 callgsubr
            return
          </CharString>
          <CharString index="87">
            118 92 119 return
          </CharString>
          <CharString index="88">
            216 132 113 242 96 -21 76 -39 57 hvcurveto
            return
          </CharString>
          <CharString index="89">
            0 -22 9 -30 -63 -32 -44 -53 -20 vhcurveto
            -7 hlineto
            return
          </CharString>
          <CharString index="90">
            vlineto
            -136 73 -49 101 78 52 38 43 34 vhcurveto
            return
          </CharString>
          <CharString index="91">
            21 74 callsubr
            return
          </CharString>
          <CharString index="92">
            591 -102 callsubr
            96 -132 -102 callsubr
            return
          </CharString>
          <CharString index="93">
            hstemhm
            -29 callsubr
            return
          </CharString>
          <CharString index="94">
            104 callsubr
            hintmask 11001100
            126 callsubr
            254 hlineto
            hintmask 11100100
            96 36 51 91 vhcurveto
            38 hlineto
            hintmask 11001100
            128 vlineto
            hintmask 11100100
            -18 callsubr
            hintmask 11010100
            -11 85 133 callsubr
            return
          </CharString>
          <CharString index="95">
            32 hlineto
            27 23 -9 -36 -29 -18 -13 -27 -30 -17 15 26 hvcurveto
            8 return
          </CharString>
          <CharString index="96">
            hstemhm
            46 134 -124 137 179 134 -121 137 return
          </CharString>
          <CharString index="97">
            -5 30 40 -3 34 hhcurveto
            54 82 14 67 46 -45 19 -53 3 hvcurveto
            return
          </CharString>
          <CharString index="98">
            588 rmoveto
            -56 callsubr
            return
          </CharString>
          <CharString index="99">
            135 rlineto
            return
          </CharString>
          <CharString index="100">
            -136 -66 -81 -133 -132 -66 81 136 vhcurveto
            return
          </CharString>
          <CharString index="101">
            137 -38 callgsubr
            hlineto
            return
          </CharString>
          <CharString index="102">
            95 34 callgsubr
            -26 callsubr
            return
          </CharString>
          <CharString index="103">
            224 vmoveto
            -26 -13 15 26 27 13 14 26 25 15 -14 -27 -26 -15 -15 -25 hvcurveto
            return
          </CharString>
          <CharString index="104">
            hstemhm
            68 4 callgsubr
            return
          </CharString>
          <CharString index="105">
            rmoveto
            97 58 27 41 43 hvcurveto
            -46 42 64 -22 85 hhcurveto
            133 100 61 137 hvcurveto
            -135 hlineto
            -61 -40 -31 -56 -84 -29 47 90 -2 vhcurveto
            346 32 hlineto
            189 -79 86 -154 -70 -56 -17 -34 -41 vhcurveto
            33 -38 -57 18 -80 hhcurveto
            return
          </CharString>
          <CharString index="106">
            33 17 21 22 38 vvcurveto
            67 -50 35 -73 -70 -52 -40 -62 vhcurveto
            return
          </CharString>
          <CharString index="107">
            -60 callgsubr
            endchar
          </CharString>
          <CharString index="108">
            179 89 86 189 67 -11 54 -22 42 hvcurveto
            return
          </CharString>
          <CharString index="109">
            36 8 callsubr
            return
          </CharString>
          <CharString index="110">
            -72 -12 121 -88 -21 467 59 0 -20 80 137 return
          </CharString>
          <CharString index="111">
            20 3 21 28 47 hhcurveto
            return
          </CharString>
          <CharString index="112">
            282 -43 vlineto
            -35 -20 -53 -18 -34 -3 rrcurveto
            -55 82 -186 -82 vlineto
            return
          </CharString>
          <CharString index="113">
            515 126 -370 560 -145 hlineto
            return
          </CharString>
          <CharString index="114">
            9 -69 rlineto
            117 723 -137 -258 -6 hlineto
            return
          </CharString>
          <CharString index="115">
            139 204 142 return
          </CharString>
          <CharString index="116">
            151 123 return
          </CharString>
          <CharString index="117">
            42 149 return
          </CharString>
          <CharString index="118">
            167 -77 callsubr
            return
          </CharString>
          <CharString index="119">
            -21 401 137 -12 -20 23 -20 return
          </CharString>
          <CharString index="120">
            hstemhm
            -39 callsubr
            return
          </CharString>
          <CharString index="121">
            rmoveto
            83 70 40 69 -40 148 -44 hlineto
            -9 -31 -16 -42 -14 -27 rrcurveto
            -48 -72 vlineto
            26 37 54 103 21 89 rrcurveto
            -89 hlineto
            -24 -91 -27 -80 -39 -63 rrcurveto
            -64 150 vlineto
            endchar
          </CharString>
          <CharString index="122">
            vstem
            67 hmoveto
            145 199 hlineto
            128 106 197 -305 rlineto
            172 hlineto
            -272 407 268 279 rlineto
            -176 hlineto
            -317 -331 rlineto
            331 -145 vlineto
            return
          </CharString>
          <CharString index="123">
            39 -12 123 509 66 0 -20 65 137 return
          </CharString>
          <CharString index="124">
            79 callgsubr
            376 150 -145 145 return
          </CharString>
          <CharString index="125">
            561 212 125 -569 -125 212 return
          </CharString>
          <CharString index="126">
            -55 callsubr
            41 -144 -43 vlineto
            37 callsubr
          </CharString>
          <CharString index="127">
            132 -3 callsubr
            return
          </CharString>
          <CharString index="128">
            599 -2 callgsubr
            return
          </CharString>
          <CharString index="129">
            48 32 63 43 78 vvcurveto
            29 -11 80 -109 -70 -61 -30 -72 -16 3 -12 0 vhcurveto
            80 18 hlineto
            31 16 12 29 28 13 -19 -17 -14 -3 -16 -9 -12 vhcurveto
            return
          </CharString>
          <CharString index="130">
            rmoveto
            99 hlineto
            136 200 -136 200 rlineto
            -99 hlineto
            108 -200 rlineto
            return
          </CharString>
          <CharString index="131">
            rmoveto
            99 hlineto
            -108 200 108 200 rlineto
            -99 hlineto
            -136 -200 rlineto
            return
          </CharString>
          <CharString index="132">
            261 0 168 366 152 0 -20 return
          </CharString>
          <CharString index="133">
            -72 49 callsubr
            return
          </CharString>
          <CharString index="134">
            50 callsubr
            hintmask 11101010
            -48 callgsubr
            hhcurveto
            return
          </CharString>
          <CharString index="135">
            34 -131 rlineto
            390 123 -276 hlineto
            -44 166 rlineto
            270 123 -303 hlineto
            -40 151 rlineto
            387 123 -612 hlineto
            return
          </CharString>
          <CharString index="136">
            vstem
            308 -80 callsubr
            return
          </CharString>
          <CharString index="137">
            89 31 41 62 113 vvcurveto
            54 vlineto
            return
          </CharString>
          <CharString index="138">
            hstemhm
            42 147 -130 146 return
          </CharString>
          <CharString index="139">
            rmoveto
            138 137 -55 hlineto
            55 156 rlineto
            -72 hlineto
            -66 -168 rlineto
            return
          </CharString>
          <CharString index="140">
            95 0 159 208 159 0 -20 return
          </CharString>
          <CharString index="141">
            -182 109 599 -20 return
          </CharString>
          <CharString index="142">
            79 callgsubr
            341 149 -144 144 return
          </CharString>
          <CharString index="143">
            -67 callgsubr
            11 137 -95 86 callsubr
            -61 158 hintmask 00000000
            hintmask 10011010
            return
          </CharString>
          <CharString index="144">
            -135 85 -70 151 vhcurveto
            endchar
          </CharString>
          <CharString index="145">
            -21 417 121 return
          </CharString>
          <CharString index="146">
            145 vstem
            67 hmoveto
            62 callsubr
            return
          </CharString>
          <CharString index="147">
            69 34 32 60 100 vvcurveto
            54 vlineto
            return
          </CharString>
          <CharString index="148">
            133 callsubr
            endchar
          </CharString>
          <CharString index="149">
            rmoveto
            95 hlineto
            58 77 rlineto
            -27 52 63 -13 74 hhcurveto
            216 132 113 242 123 -34 90 -62 58 hvcurveto
            return
          </CharString>
          <CharString index="150">
            rmoveto
            -79 132 rlineto
            -133 hlineto
            -1 -3 108 -129 rlineto
            return
          </CharString>
          <CharString index="151">
            -405 87 callgsubr
            145 vstem
            return
          </CharString>
          <CharString index="152">
            rmoveto
            5 callgsubr
            vhcurveto
            -14 -54 68 25 hlineto
            return
          </CharString>
          <CharString index="153">
            88.5 -10.5 107 return
          </CharString>
          <CharString index="154">
            83 -76 83 3 105 -30 84 -77 84 return
          </CharString>
          <CharString index="155">
            -405 21 99 callsubr
            return
          </CharString>
          <CharString index="156">
            21 38 callsubr
            return
          </CharString>
          <CharString index="157">
            70 hlineto
            hintmask 11010101
            -57 callgsubr
            hintmask 11101010
            -48 callsubr
            hintmask 11011010
            -68 callgsubr
            return
          </CharString>
          <CharString index="158">
            -135 -89 -58 -88 -9 0 -7 1 -6 hvcurveto
            132 15 hlineto
            21 20 26 75 75 13 -33 -40 vhcurveto
            -37 vlineto
            return
          </CharString>
          <CharString index="159">
            67 hmoveto
            -63 callsubr
            -284 hlineto
            return
          </CharString>
          <CharString index="160">
            -350 0 137 252 137 hstem
            97 138 vstem
            97 389 rmoveto
            -33 callgsubr
            return
          </CharString>
          <CharString index="161">
            35 callsubr
            hintmask 11110100
            return
          </CharString>
          <CharString index="162">
            rmoveto
            106 hlineto
            21 132 rlineto
            147 -149 -147 vlineto
            return
          </CharString>
          <CharString index="163">
            vstem
            11 callsubr
            return
          </CharString>
          <CharString index="164">
            141 376 hlineto
            18 -3 42 0 vhcurveto
            5 3 rlineto
            0 19 -38 20 -28 vhcurveto
            265 -373 rlineto
            return
          </CharString>
          <CharString index="165">
            132 82 callgsubr
            return
          </CharString>
          <CharString index="166">
            -46 -21 -35 -34 -52 vvcurveto
            return
          </CharString>
          <CharString index="167">
            70 196 70 return
          </CharString>
          <CharString index="168">
            -72 70 callsubr
            91 92 callsubr
            hintmask 11011100
            return
          </CharString>
          <CharString index="169">
            145 289 298 -289 9 callgsubr
            -272 -298 272 -145 hlineto
            return
          </CharString>
          <CharString index="170">
            15 vlineto
            55 7 37 32 32 7 -37 -55 vhcurveto
            -15 vlineto
            return
          </CharString>
          <CharString index="171">
            rmoveto
            109 hlineto
            57 177 -1 3 rlineto
            -130 hlineto
            return
          </CharString>
          <CharString index="172">
            -72 78 callgsubr
            return
          </CharString>
          <CharString index="173">
            43 -24 28 -37 14 vhcurveto
            4 vlineto
            return
          </CharString>
          <CharString index="174">
            -12 110 330 110 return
          </CharString>
          <CharString index="175">
            rmoveto
            104 63 41 139 139 -63 42 -104 -104 -63 -42 -139 -138 63 -42 104 hvcurveto
            return
          </CharString>
          <CharString index="176">
            -350 611 88 hstem
            14 305 vstem
            14 611 -44 callsubr
            endchar
          </CharString>
          <CharString index="177">
            -182 112 return
          </CharString>
          <CharString index="178">
            112 hstem
            86 138 164 136 vstem
            24 hmoveto
            492 112 -306 hlineto
            12 return
          </CharString>
          <CharString index="179">
            70 callsubr
            91 99 callsubr
            return
          </CharString>
          <CharString index="180">
            95 29 52 84 78 34 return
          </CharString>
          <CharString index="181">
            -21 686 -20 return
          </CharString>
          <CharString index="182">
            39 70 callsubr
            91 74 callsubr
            hstem
            49 callgsubr
            vstem
            return
          </CharString>
          <CharString index="183">
            103 203 185 104 -185 204 -103 -204 -184 -104 184 hlineto
            return
          </CharString>
          <CharString index="184">
            38 139 210 132 return
          </CharString>
          <CharString index="185">
            142 hlineto
            63 252 rlineto
            return
          </CharString>
          <CharString index="186">
            vstem
            225 -22 callgsubr
            return
          </CharString>
          <CharString index="187">
            -182 rmoveto
            107 31 71 70 hvcurveto
            return
          </CharString>
          <CharString index="188">
            -78 callsubr
            38 return
          </CharString>
          <CharString index="189">
            137 414 93 112 -93 return
          </CharString>
          <CharString index="190">
            -43 callgsubr
            hstemhm
            return
          </CharString>
          <CharString index="191">
            144 180 146 return
          </CharString>
          <CharString index="192">
            428 -12 119 -107 60 callgsubr
            -107 46 -46 119 return
          </CharString>
          <CharString index="193">
            132 13 callsubr
            return
          </CharString>
          <CharString index="194">
            -20 98 callgsubr
            hmoveto
            137 return
          </CharString>
          <CharString index="195">
            48 103 callgsubr
            return
          </CharString>
          <CharString index="196">
            -72 59 -49 72 vhcurveto
            return
          </CharString>
          <CharString index="197">
            hstemhm
            68 137 return
          </CharString>
          <CharString index="198">
            539 0 112 -112 123 291 112 37 123 return
          </CharString>
          <CharString index="199">
            38 callsubr
            -12 -20 13 callgsubr
            return
          </CharString>
          <CharString index="200">
            95 callsubr
            28 19 28 13 14 hvcurveto
            endchar
          </CharString>
          <CharString index="201">
            197 rlineto
            52 vlineto
            -130 -53 rlineto
            return
          </CharString>
          <CharString index="202">
            55 -24 vlineto
            -35 -13 25 26 return
          </CharString>
          <CharString index="203">
            54 38 52 -14 callsubr
            return
          </CharString>
          <CharString index="204">
            591 rmoveto
            68 25 hlineto
            return
          </CharString>
          <CharString index="205">
            586 rmoveto
            90 hlineto
            return
          </CharString>
          <CharString index="206">
            -21 526 -20 return
          </CharString>
          <CharString index="207">
            -58 callgsubr
            hintmask 10111101
            return
          </CharString>
          <CharString index="208">
            109 callgsubr
            38 141 93 68 -22 107 7 141 return
          </CharString>
          <CharString index="209">
            -294 -159 77 324 41 10 41 324 77 hstemhm
            return
          </CharString>
          <CharString index="210">
            -403 -152 -21 896 -20 hstem
            90 100 vstem
            90 return
          </CharString>
          <CharString index="211">
            12 callsubr
            -13 callgsubr
            return
          </CharString>
          <CharString index="212">
            hstem
            10 callsubr
            130 135 132 149 vstem
            return
          </CharString>
          <CharString index="213">
            -193 -227 rmoveto
            -56 callsubr
            return
          </CharString>
          <CharString index="214">
            549 137 hstem
            70 138 return
          </CharString>
          <CharString index="215">
            137 -89 89 hstemhm
            return
          </CharString>
          <CharString index="216">
            136 -75 138 -134 134 hintmask 1111100110100000
            return
          </CharString>
          <CharString index="217">
            464 123 31 callsubr
            return
          </CharString>
          <CharString index="218">
            -25 callgsubr
            43 113 callgsubr
            hstem
            return
          </CharString>
          <CharString index="219">
            hintmask 00000000
            hintmask 11101100
            return
          </CharString>
          <CharString index="220">
            473 104 -473 hlineto
            return
          </CharString>
          <CharString index="221">
            -39 -18 -15 -30 -37 vvcurveto
            return
          </CharString>
          <CharString index="222">
            rlineto
            -141 hlineto
            endchar
          </CharString>
          <CharString index="223">
            43 34 14 43 vhcurveto
            69 vlineto
            -101 -87 -18 -94 return
          </CharString>
          <CharString index="224">
            39 -138 98 61 74 callsubr
            hstem
            67 return
          </CharString>
          <CharString index="225">
            -12 59 callgsubr
            return
          </CharString>
          <CharString index="226">
            -104 112 hstemhm
            84 137 183 137 return
          </CharString>
          <CharString index="227">
            317 198 108 hstem
            42 918 vstem
            return
          </CharString>
          <CharString index="228">
            -350 591 132 hstem
            return
          </CharString>
          <CharString index="229">
            256 -253 83 86 82 return
          </CharString>
          <CharString index="230">
            rmoveto
            472 104 -472 hlineto
            return
          </CharString>
          <CharString index="231">
            -183 -207 918 hstem
            return
          </CharString>
          <CharString index="232">
            601 rmoveto
            70 hlineto
            return
          </CharString>
          <CharString index="233">
            71 hmoveto
            137 return
          </CharString>
          <CharString index="234">
            -3 callsubr
            hintmask 01111100
            return
          </CharString>
          <CharString index="235">
            -16 callsubr
            70 109 callgsubr
            return
          </CharString>
          <CharString index="236">
            206 -12 70 callgsubr
            110 106 return
          </CharString>
          <CharString index="237">
            -723 rmoveto
            78 callsubr
            return
          </CharString>
          <CharString index="238">
            hstemhm
            38 141 59 135 59 141 return
          </CharString>
          <CharString index="239">
            -723 rmoveto
            -6 callsubr
            return
          </CharString>
          <CharString index="240">
            rlineto
            -117 hlineto
            return
          </CharString>
        <CharString name=".notdef">
          -182 0 50 600 50 hstem
          0 50 400 50 vstem
          0 vmoveto
          500 700 -500 hlineto
          250 -305 rmoveto
          -170 255 rlineto
          340 hlineto
          -370 -555 rmoveto
          510 vlineto
          170 -255 rlineto
          230 -255 rmoveto
          -170 255 170 255 rlineto
          -370 -555 rmoveto
          170 255 170 -255 rlineto
          endchar
        </CharString>
        <CharString name="A">
          -79 callsubr
          hstem
          2 718 vstem
          2 hmoveto
          -107 callsubr
          endchar
        </CharString>
        <CharString name="AE">
          317 0 123 8 121 37 -40 callgsubr
          hstemhm
          -5 950 hintmask 10111000
          -5 hmoveto
          150 hlineto
          hintmask 11111000
          60 131 rlineto
          316 hlineto
          hintmask 10111000
          28 callsubr
          hintmask 11111000
          86 callgsubr
        </CharString>
        <CharString name="AEacute">
          317 0 123 8 121 37 -40 callgsubr
          50 132 hstemhm
          -5 950 hintmask 10111100
          447 -80 callsubr
          -531 -868 rmoveto
          150 hlineto
          hintmask 11111100
          60 131 rlineto
          316 hlineto
          hintmask 10111100
          28 callsubr
          hintmask 11111100
          86 callgsubr
        </CharString>
        <CharString name="Aacute">
          -79 callsubr
          50 132 hstem
          2 718 29 callsubr
          -385 -868 -104 callsubr
        </CharString>
        <CharString name="Abreve">
          -79 callsubr
          45 89 hstem
          2 718 vstem
          360 731 -98 callgsubr
          endchar
        </CharString>
        <CharString name="Acircumflex">
          -79 callsubr
          47 135 hstem
          2 718 vstem
          11 callgsubr
          -298 -868 -104 callsubr
        </CharString>
        <CharString name="Adieresis">
          -79 callsubr
          64 118 hstem
          197 -20 callsubr
          vstem
          197 750 -97 callgsubr
          -405 -868 -104 callsubr
        </CharString>
        <CharString name="Agrave">
          -79 callsubr
          50 132 hstem
          2 718 vstem
          308 -38 callsubr
          -198 -865 -104 callsubr
        </CharString>
        <CharString name="Amacron">
          -79 callsubr
          70 88 hstem
          2 718 vstem
          208 756 -44 callsubr
          -206 -844 -104 callsubr
        </CharString>
        <CharString name="Aogonek">
          39 -182 69 134 -21 131 121 309 125 hstem
          522 105 vstem
          638 -182 rmoveto
          27 27 5 9 29 hvcurveto
          55 -36 vlineto
          -42 -16 19 32 24 13 23 12 15 hvcurveto
          68 hlineto
          108 callgsubr
          -268 -686 rlineto
          150 hlineto
          49 131 rlineto
          312 hlineto
          49 -131 rlineto
          -22 -23 -18 -28 -43 vvcurveto
          -67 54 -21 62 vhcurveto
          -392 434 rmoveto
          65 174 rlineto
          13 34 30 101 0 vvcurveto
          5 hlineto
          0 30 -101 13 -34 vhcurveto
          65 -174 rlineto
          endchar
        </CharString>
        <CharString name="Aring">
          -79 callsubr
          15 57 88 57 hstemhm
          260 57 88 57 hintmask 00000000
          hintmask 11111110
          361 701 -78 callgsubr
          -359 -758 rmoveto
          -96 callgsubr
          hintmask 11101110
          108 callgsubr
          -24 -434 rmoveto
          65 174 rlineto
          13 34 30 101 0 vvcurveto
          5 hlineto
          0 30 -101 13 -34 vhcurveto
          65 -174 rlineto
          endchar
        </CharString>
        <CharString name="Aringacute">
          39 21 -21 131 121 436 -20 109 57 27 132 hstemhm
          260 57 88 57 hintmask 11101110
          302 861 -102 callsubr
          -379 -993 rmoveto
          -96 callgsubr
          -37 callsubr
          6 14 4 16 17 vvcurveto
          hintmask 11111110
          56 -38 45 -63 -63 -38 -45 -56 -17 3 -16 7 -14 vhcurveto
          92 2 rmoveto
          -27 -18 20 25 25 17 19 27 26 18 -19 -25 -25 -17 -20 -26 hvcurveto
          -116 -436 rmoveto
          65 174 rlineto
          13 34 30 101 0 vvcurveto
          5 hlineto
          0 30 -101 13 -34 vhcurveto
          65 -174 rlineto
          endchar
        </CharString>
        <CharString name="Atilde">
          -79 callsubr
          60 10 callgsubr
          193 60 callsubr
          hintmask 11110110
          193 746 rmoveto
          70 hlineto
          hintmask 11101110
          -57 callgsubr
          hintmask 11110110
          -48 callsubr
          hintmask 11101110
          -68 callgsubr
          hintmask 11110110
          -48 callgsubr
          hhcurveto
          hintmask 11101110
          -47 callsubr
          hintmask 11110110
          -47 callgsubr
          -191 -746 -104 callsubr
        </CharString>
        <CharString name="B">
          39 0 123 168 121 9 callsubr
          hstemhm
          67 146 290 149 -130 149 hintmask 11110100
          67 hmoveto
          393 hlineto
          116 95 62 130 84 -55 65 -76 15 hvcurveto
          4 vlineto
          hintmask 11111000
          63 21 49 56 79 vvcurveto
          101 -83 69 -109 vhcurveto
          -393 hlineto
          146 -274 rmoveto
          151 213 vlineto
          46 31 -26 -52 -40 -28 -33 -56 hvcurveto
          -206 -289 rmoveto
          168 vlineto
          hintmask 11110100
          215 hlineto
          64 30 -36 -47 -56 -38 -29 -48 hvcurveto
          endchar
        </CharString>
        <CharString name="C">
          39 -78 callsubr
          35 callsubr
          hintmask 11101000
          374 -12 rmoveto
          173 134 85 181 hvcurveto
          -144 hlineto
          -91 -64 -52 -96 -128 -58 76 141 vhcurveto
          30 vlineto
          136 58 81 128 vhcurveto
          hintmask 11110000
          89 66 -52 -92 hvcurveto
          149 hlineto
          181 -137 86 -170 -206 -126 -113 -242 vhcurveto
          hintmask 11101000
          -252 126 -103 206 vhcurveto
          endchar
        </CharString>
        <CharString name="CR">
          -683 endchar
        </CharString>
        <CharString name="Cacute">
          39 34 callgsubr
          54 callsubr
          308 -80 callsubr
          -13 -880 -83 callsubr
        </CharString>
        <CharString name="Cacute.loclPLK">
          39 81 callsubr
          131 54 callsubr
          308 736 -39 callgsubr
          37 -879 -83 callsubr
        </CharString>
        <CharString name="Ccaron">
          39 133 callgsubr
          54 callsubr
          300 733 -101 callsubr
          180 -880 -83 callsubr
        </CharString>
        <CharString name="Ccedilla">
          39 68 callgsubr
          43 -21 22 -21 585 123 79 callgsubr
          129 46 callsubr
          27 149 -144 144 hintmask 0000000000000000
          hintmask 1010111000100000
          377 111 rmoveto
          -128 -58 76 141 hvcurveto
          30 vlineto
          136 58 81 128 vhcurveto
          hintmask 1000111001000000
          89 66 -52 -92 hvcurveto
          149 hlineto
          181 -137 86 -170 -206 -126 -113 -242 -231 106 -106 177 -16 vhcurveto
          hintmask 1010111101000000
          -10 -67 rlineto
          hintmask 1010111011000000
          -24 callsubr
          hintmask 0100111001000000
          -49 vlineto
          hintmask 1010111011000000
          -10 callsubr
          hintmask 1001011100100000
          3 22 rlineto
          155 11 116 86 168 vvcurveto
          -144 hlineto
          hintmask 1010111000100000
          -91 -64 -52 -96 vhcurveto
          endchar
        </CharString>
        <CharString name="Ccircumflex">
          39 133 callgsubr
          54 callsubr
          11 callgsubr
          74 -880 -83 callsubr
        </CharString>
        <CharString name="Cdotaccent">
          39 -78 callsubr
          41 130 79 callgsubr
          102 135 104 149 -144 144 hintmask 11111010
          293 739 -92 callgsubr
          81 -881 rmoveto
          173 134 85 181 hvcurveto
          -144 hlineto
          -91 -64 -52 -96 -128 -58 76 141 vhcurveto
          30 vlineto
          136 58 81 128 vhcurveto
          hintmask 11111100
          89 66 -52 -92 hvcurveto
          149 hlineto
          181 -137 86 -170 -206 -126 -113 -242 vhcurveto
          hintmask 11111010
          -252 126 -103 206 vhcurveto
          endchar
        </CharString>
        <CharString name="D">
          39 78 callgsubr
          -25 callsubr
          318 149 vstem
          67 hmoveto
          -51 callgsubr
          endchar
        </CharString>
        <CharString name="Dcaron">
          39 78 callgsubr
          47 135 -25 callsubr
          318 149 vstem
          300 733 -101 callsubr
          -127 -868 rmoveto
          -51 callgsubr
          endchar
        </CharString>
        <CharString name="Dcroat">
          -46 callsubr
        </CharString>
        <CharString name="E">
          -72 callsubr
          -25 callsubr
          vstem
          67 hmoveto
          -98 callsubr
          endchar
        </CharString>
        <CharString name="Eacute">
          -72 callsubr
          50 132 -25 callsubr
          vstem
          281 -80 callsubr
          -293 0 callsubr
        </CharString>
        <CharString name="Ebreve">
          -72 callsubr
          45 114 callgsubr
          333 -57 callsubr
          -266 -731 -86 callgsubr
        </CharString>
        <CharString name="Ecaron">
          -72 callsubr
          47 135 -25 callsubr
          vstem
          273 733 -101 callsubr
          -100 0 callsubr
        </CharString>
        <CharString name="Ecircumflex">
          -72 callsubr
          47 135 hstem
          67 145 vstem
          167 733 -79 callgsubr
          endchar
        </CharString>
        <CharString name="Edieresis">
          -72 callsubr
          64 118 -14 callsubr
          -42 -20 callsubr
          hintmask 00000000
          hintmask 11110110
          170 750 -97 callgsubr
          hintmask 11111010
          -313 0 callsubr
        </CharString>
        <CharString name="Edotaccent">
          -72 callsubr
          53 130 -25 callsubr
          54 135 vstem
          266 739 -92 callgsubr
          -199 -869 -86 callgsubr
        </CharString>
        <CharString name="Egrave">
          -72 callsubr
          50 132 -25 callsubr
          vstem
          281 -38 callsubr
          -106 -865 -86 callgsubr
        </CharString>
        <CharString name="Emacron">
          -72 callsubr
          70 88 -25 callsubr
          vstem
          181 756 -44 callsubr
          -114 -844 -86 callgsubr
        </CharString>
        <CharString name="Eng">
          75 callsubr
          517 80 callsubr
          727 -141 -376 vlineto
          -70 callgsubr
          370 rlineto
          -141 -686 57 callsubr
          -27 vlineto
          -23 callgsubr
          -8 23 43 -8 32 hhcurveto
          endchar
        </CharString>
        <CharString name="Eogonek">
          -16 -182 69 113 -69 callsubr
          -25 callsubr
          223 177 vstem
          541 20 callgsubr
          -24 vlineto
          -33 -15 18 19 31 45 30 27 15 hvcurveto
          123 -400 166 350 123 -350 151 394 123 -539 -686 442 vlineto
          -40 -24 -34 -29 -47 vvcurveto
          -62 57 -20 49 vhcurveto
          endchar
        </CharString>
        <CharString name="Eth">
          -46 callsubr
        </CharString>
        <CharString name="Euro">
          -12 112 127 81 70 81 127 112 hstem
          68 139 vstem
          403 -12 rmoveto
          41 41 6 12 37 hvcurveto
          110 vlineto
          -11 -29 -31 -5 -34 hhcurveto
          -92 -73 48 79 -35 hvcurveto
          222 81 -243 hlineto
          -1 11 -1 12 0 12 0 12 1 13 10 flex1
          243 81 -222 hlineto
          79 35 73 48 92 hhcurveto
          34 31 -6 -10 29 hvcurveto
          110 vlineto
          11 -37 -41 7 -41 hhcurveto
          -158 -121 -93 -146 -42 hvcurveto
          -72 -81 58 hlineto
          -1 -12 0 -11 0 -12 0 -12 0 -12 -11 flex1
          -58 -81 72 hlineto
          -147 42 121 -92 158 hhcurveto
          endchar
        </CharString>
        <CharString name="F">
          -72 21 -21 271 123 169 123 -25 callsubr
          vstem
          67 hmoveto
          145 271 315 123 -315 169 352 123 -497 hlineto
          endchar
        </CharString>
        <CharString name="G">
          -30 callgsubr
          17 callsubr
          hintmask 10111010
          364 254 -75 callsubr
          hintmask 10111100
          -87 callgsubr
          hintmask 01111010
          13 -76 rlineto
          100 373 -353 hlineto
          endchar
        </CharString>
        <CharString name="G_tilde.loclGUA">
          -30 callgsubr
          48 85 -48 85 79 callgsubr
          30 60 callsubr
          10 150 -145 145 hintmask 0000000000000000
          hintmask 1011011100100000
          326 783 rmoveto
          hintmask 1011101010100000
          -48 callsubr
          hintmask 1011011010100000
          -68 callgsubr
          hintmask 1011101010100000
          -48 callgsubr
          hhcurveto
          hintmask 1011011100100000
          -47 callsubr
          hintmask 1011101100100000
          -47 callgsubr
          70 hlineto
          hintmask 1011011100100000
          -57 callgsubr
          hintmask 1011001000100000
          38 -529 -75 callsubr
          hintmask 1011001001000000
          -87 callgsubr
          hintmask 0111001000100000
          13 -76 rlineto
          100 373 -353 hlineto
          endchar
        </CharString>
        <CharString name="Gbreve">
          -30 callgsubr
          33 89 17 callsubr
          hintmask 10111101
          388 -57 callsubr
          -24 -477 -86 callsubr
        </CharString>
        <CharString name="Gcaron">
          -30 callgsubr
          35 135 17 callsubr
          hintmask 10111101
          450 733 rmoveto
          105 -8 callsubr
          -111 hlineto
          -55 -69 -56 69 rlineto
          -111 hlineto
          106 -135 rlineto
          36 -479 -86 callsubr
        </CharString>
        <CharString name="Gcircumflex">
          -30 callgsubr
          35 135 17 callsubr
          hintmask 10111101
          389 802 rmoveto
          -102 callgsubr
          -106 -135 -8 callgsubr
          31 -479 -86 callsubr
        </CharString>
        <CharString name="Gcommaaccent">
          95 -138 98 28 -17 callgsubr
          79 callgsubr
          129 138 109 150 -145 145 hintmask 0101111010000000
          364 254 -75 callsubr
          hintmask 0101111100000000
          -87 callgsubr
          hintmask 1011111010000000
          13 -76 rlineto
          100 373 -353 hlineto
          -44 -511 rmoveto
          55 hlineto
          -52 -92 rlineto
          72 hlineto
          63 104 rlineto
          86 -138 vlineto
          endchar
        </CharString>
        <CharString name="Gdotaccent">
          -30 callgsubr
          41 130 79 callgsubr
          130 135 111 150 -145 145 hintmask 1011111010000000
          456 869 rmoveto
          -135 -130 135 hlineto
          -92 -485 -75 callsubr
          hintmask 1011111100000000
          -87 callgsubr
          hintmask 0111111010000000
          13 -76 rlineto
          100 373 -353 hlineto
          endchar
        </CharString>
        <CharString name="H">
          39 21 110 callgsubr
          298 39 callsubr
          endchar
        </CharString>
        <CharString name="Hbar">
          39 21 -21 289 125 93 91 -91 179 -14 callsubr
          298 145 hintmask 11011100
          67 hmoveto
          145 289 298 -289 145 507 60 hlineto
          hintmask 11101100
          91 -60 127 callgsubr
          -298 127 callgsubr
          -60 vlineto
          hintmask 11011100
          -91 60 vlineto
          145 -93 rmoveto
          93 298 -93 vlineto
          endchar
        </CharString>
        <CharString name="Hcircumflex">
          39 21 -21 289 125 272 23 callgsubr
          -233 -868 rmoveto
          62 callsubr
          endchar
        </CharString>
        <CharString name="I">
          27 callgsubr
          -25 callsubr
          vstem
          67 hmoveto
          26 callgsubr
          endchar
        </CharString>
        <CharString name="IJ">
          151 -12 122 -110 236 -215 74 callsubr
          -14 callsubr
          91 84 callsubr
          hintmask 00000000
          hintmask 00111110
          67 hmoveto
          26 callgsubr
          hintmask 10011110
          472 -698 -55 callsubr
          hintmask 01011110
          41 -144 -43 vlineto
          hintmask 10011110
          37 callsubr
        </CharString>
        <CharString name="Iacute">
          44 callsubr
          86 -80 callsubr
          -98 -868 -37 callgsubr
        </CharString>
        <CharString name="Iacute_J.loclNLD">
          151 -12 122 -110 236 -215 67 callgsubr
          -14 callsubr
          91 84 callsubr
          hintmask 10011111
          86 -80 callsubr
          482 -132 -102 callsubr
          hintmask 00111111
          -659 -868 rmoveto
          26 callgsubr
          hintmask 10011111
          472 -698 -55 callsubr
          hintmask 01011111
          41 -144 -43 vlineto
          hintmask 10011111
          37 callsubr
        </CharString>
        <CharString name="Ibreve">
          27 callgsubr
          65 114 callgsubr
          138 -57 callsubr
          -71 -731 -37 callgsubr
        </CharString>
        <CharString name="Icircumflex">
          27 callgsubr
          67 135 -25 callsubr
          vstem
          -28 -77 callsubr
          -11 -868 -37 callgsubr
        </CharString>
        <CharString name="Idieresis">
          27 callgsubr
          84 118 hstemhm
          -25 128 callgsubr
          hintmask 11110000
          -25 750 rmoveto
          hintmask 11101000
          118 118 hlineto
          hintmask 11110000
          -118 hlineto
          hintmask 11101000
          210 -118 rmoveto
          hintmask 11100100
          119 118 hlineto
          hintmask 11101000
          -119 hlineto
          -118 -868 -37 callgsubr
        </CharString>
        <CharString name="Idotaccent">
          27 callgsubr
          73 130 -25 callsubr
          vstem
          71 739 -92 callgsubr
          -4 -869 -37 callgsubr
        </CharString>
        <CharString name="Igrave">
          44 callsubr
          86 -38 callsubr
          89 -865 -37 callgsubr
        </CharString>
        <CharString name="Imacron">
          27 callgsubr
          90 88 -25 callsubr
          vstem
          -14 756 -44 callsubr
          81 -844 -37 callgsubr
        </CharString>
        <CharString name="Iogonek">
          -405 -190 69 -55 55 -34 -21 197 74 callsubr
          -14 callsubr
          hintmask 00111100
          212 hmoveto
          686 -145 -686 15 vlineto
          hintmask 10011100
          -24 -25 -23 -30 -47 89 callgsubr
          vhcurveto
          hintmask 00111100
          24 22 5 9 25 hvcurveto
          hintmask 01011100
          93 callsubr
        </CharString>
        <CharString name="Itilde">
          27 callgsubr
          80 10 callgsubr
          -29 70 26 145 25 70 112 callsubr
          -29 746 1 callgsubr
          hintmask 11100110
          -48 callgsubr
          hhcurveto
          hintmask 11011100
          100 callgsubr
          96 -746 -37 callgsubr
        </CharString>
        <CharString name="J">
          -12 122 576 -20 hstem
          25 84 callsubr
          vstem
          261 -12 19 callsubr
        </CharString>
        <CharString name="Jcircumflex">
          -12 122 576 -20 67 135 hstem
          25 84 callsubr
          vstem
          255 -77 callsubr
          -100 -880 19 callsubr
        </CharString>
        <CharString name="K">
          39 -16 callsubr
          -25 callsubr
          15 callsubr
          endchar
        </CharString>
        <CharString name="Kcommaaccent">
          117 callsubr
          145 80 138 15 callsubr
          228 -916 rmoveto
          -61 callsubr
        </CharString>
        <CharString name="L">
          -72 0 126 560 -20 -25 callsubr
          vstem
          67 hmoveto
          6 callsubr
          endchar
        </CharString>
        <CharString name="Lacute">
          -72 0 126 560 107 callgsubr
          vstem
          87 -80 callsubr
          -99 -868 rmoveto
          6 callsubr
          endchar
        </CharString>
        <CharString name="Lcaron">
          -72 0 126 433 127 -25 callsubr
          142 138 vstem
          67 hmoveto
          6 callsubr
          287 -244 -1 callgsubr
          endchar
        </CharString>
        <CharString name="Lcommaaccent">
          -72 -138 98 40 126 560 -20 -25 callsubr
          44 138 vstem
          67 hmoveto
          6 callsubr
          192 -916 rmoveto
          -61 callsubr
        </CharString>
        <CharString name="Ldot">
          -72 0 126 263 137 160 -20 -25 callsubr
          131 138 vstem
          67 hmoveto
          6 callsubr
          276 -297 rmoveto
          -33 callgsubr
          endchar
        </CharString>
        <CharString name="Lslash">
          -72 0 126 411 -20 169 -20 -25 callsubr
          vstem
          67 hmoveto
          515 126 -370 216 hlineto
          141 93 rlineto
          102 vlineto
          -141 -93 rlineto
          242 -145 -338 vlineto
          -67 -44 rlineto
          -102 vlineto
          67 44 rlineto
          endchar
        </CharString>
        <CharString name="M">
          150 0 153 -132 -21 547 139 hstemhm
          67 140 414 145 hintmask 01111000
          67 hmoveto
          140 437 hlineto
          27 -6 83 0 vhcurveto
          5 hlineto
          21 -81 118 -466 rlineto
          138 hlineto
          118 466 21 81 rlineto
          5 hlineto
          0 -6 -79 -31 vvcurveto
          -437 145 686 -216 vlineto
          -96 -378 rlineto
          hintmask 10111000
          -10 -40 -18 -115 0 vvcurveto
          -5 hlineto
          0 -20 110 -12 45 vhcurveto
          -96 378 rlineto
          -226 hlineto
          endchar
        </CharString>
        <CharString name="N">
          39 -16 callsubr
          hstem
          49 callgsubr
          vstem
          -7 callgsubr
          endchar
        </CharString>
        <CharString name="NULL">
          -683 endchar
        </CharString>
        <CharString name="Nacute">
          39 87 callgsubr
          141 306 141 29 callsubr
          -320 -868 rmoveto
          141 379 hlineto
          -97 callsubr
          hlineto
          endchar
        </CharString>
        <CharString name="Nacute.loclPLK">
          39 -16 callsubr
          70 131 hstem
          49 callgsubr
          vstem
          308 736 -39 callgsubr
          -270 -867 rmoveto
          141 379 hlineto
          -97 callsubr
          hlineto
          endchar
        </CharString>
        <CharString name="Ncaron">
          39 -16 callsubr
          67 135 hstem
          49 callgsubr
          vstem
          300 733 -101 callsubr
          -127 -868 rmoveto
          141 379 hlineto
          -97 callsubr
          hlineto
          endchar
        </CharString>
        <CharString name="Ncommaaccent">
          117 callsubr
          141 84 138 84 141 vstem
          -7 callgsubr
          228 -916 rmoveto
          -61 callsubr
        </CharString>
        <CharString name="Ntilde">
          39 -16 callsubr
          80 10 callgsubr
          67 141 -15 60 callsubr
          -15 141 hintmask 00000000
          hintmask 11100101
          193 746 rmoveto
          27 callsubr
          hintmask 11010101
          -47 callsubr
          hintmask 11100101
          -47 callgsubr
          hintmask 11101001
          -126 -746 rmoveto
          141 379 hlineto
          -97 callsubr
          hlineto
          endchar
        </CharString>
        <CharString name="O">
          -58 callsubr
          -26 callsubr
          389 -12 -107 callgsubr
          endchar
        </CharString>
        <CharString name="OE">
          317 -12 123 -111 -69 callsubr
          -111 123 79 callgsubr
          299 145 hintmask 00000000
          hintmask 10110110
          313 -12 rmoveto
          69 59 21 44 49 hvcurveto
          hintmask 01110110
          -53 455 123 -310 166 260 123 -260 151 304 123 -449 vlineto
          hintmask 01101110
          -54 vlineto
          45 -47 -57 21 -73 hhcurveto
          -169 -102 -123 -232 hvcurveto
          hintmask 10110110
          -232 102 -123 169 vhcurveto
          30 123 rmoveto
          -108 -44 76 156 hvcurveto
          hintmask 01101110
          156 44 76 108 91 56 -62 -170 vhcurveto
          hintmask 10110110
          -170 -56 -62 -91 vhcurveto
          endchar
        </CharString>
        <CharString name="Oacute">
          -5 callsubr
          336 -80 callsubr
          -26 -880 -107 callgsubr
          endchar
        </CharString>
        <CharString name="Oacute.loclPLK">
          95 81 callsubr
          131 -26 callsubr
          336 736 -39 callgsubr
          24 -879 -107 callgsubr
          endchar
        </CharString>
        <CharString name="Obreve">
          -58 callsubr
          33 89 -26 callsubr
          388 -57 callsubr
          1 -743 -107 callgsubr
          endchar
        </CharString>
        <CharString name="Ocircumflex">
          95 133 callgsubr
          -26 callsubr
          222 -77 callsubr
          61 -880 -107 callgsubr
          endchar
        </CharString>
        <CharString name="Odieresis">
          -58 callsubr
          52 118 hstem
          10 callsubr
          34 -20 callsubr
          34 149 vstem
          225 750 -97 callgsubr
          -46 -880 -107 callgsubr
          endchar
        </CharString>
        <CharString name="Ograve">
          -5 callsubr
          336 -38 callsubr
          161 -877 -107 callgsubr
          endchar
        </CharString>
        <CharString name="Ohorn">
          -58 callsubr
          -7 137 82 callgsubr
          -98 158 hintmask 00000000
          hintmask 10110100
          639 828 -29 callgsubr
          hintmask 11010100
          -65 callsubr
          hintmask 11011000
          -19 callsubr
          hintmask 10110100
          -35 callgsubr
          hintmask 11011000
          -71 callsubr
          endchar
        </CharString>
        <CharString name="Ohungarumlaut">
          -5 callsubr
          249 -80 callsubr
          96 -132 -102 callsubr
          -114 -880 -107 callgsubr
          endchar
        </CharString>
        <CharString name="Omacron">
          -58 callsubr
          58 88 -26 callsubr
          236 756 -44 callsubr
          153 -856 -107 callgsubr
          endchar
        </CharString>
        <CharString name="Oslash">
          -58 callsubr
          37 -20 -26 callsubr
          47 -49 42 callsubr
          -45 callsubr
        </CharString>
        <CharString name="Oslashacute">
          -58 callsubr
          37 -20 21 58 callsubr
          hintmask 00000000
          hintmask 11011100
          336 -80 callsubr
          -368 -917 42 callsubr
          hintmask 11101100
          -45 callsubr
        </CharString>
        <CharString name="Otilde">
          -58 callsubr
          48 85 -48 85 79 callgsubr
          30 60 callsubr
          31 149 hintmask 00000000
          hintmask 11101101
          221 746 rmoveto
          70 hlineto
          hintmask 11011101
          -57 callgsubr
          hintmask 11101011
          -48 callsubr
          hintmask 11011011
          -68 callgsubr
          hintmask 11101011
          -48 callgsubr
          hhcurveto
          hintmask 11011101
          -47 callsubr
          hintmask 11101101
          -47 callgsubr
          hintmask 11101001
          168 -758 -107 callgsubr
          endchar
        </CharString>
        <CharString name="P">
          -16 21 -21 236 123 204 123 -25 callsubr
          266 147 vstem
          67 hmoveto
          145 236 92 callgsubr
          -327 hlineto
          145 -327 rmoveto
          204 169 88 callgsubr
          endchar
        </CharString>
        <CharString name="Q">
          -58 callsubr
          -26 callsubr
          527 -130 rmoveto
          191 hlineto
          -156 150 rlineto
          111 49 64 106 168 vvcurveto
          242 -132 113 -216 -215 -132 -113 -242 -242 132 -113 215 9 9 0 1 9 vhcurveto
          -27 122 rmoveto
          -132 -66 81 136 hvcurveto
          30 vlineto
          136 66 81 132 133 66 -81 -136 vhcurveto
          121 callgsubr
        </CharString>
        <CharString name="R">
          39 21 105 callgsubr
          303 -15 callgsubr
          endchar
        </CharString>
        <CharString name="Racute">
          25 callgsubr
          50 132 -25 callsubr
          303 147 29 callsubr
          -320 -868 rmoveto
          -94 callgsubr
          endchar
        </CharString>
        <CharString name="Rcaron">
          25 callgsubr
          47 135 -25 callsubr
          303 147 vstem
          300 733 -101 callsubr
          -127 -868 rmoveto
          -94 callgsubr
          endchar
        </CharString>
        <CharString name="Rcommaaccent">
          39 -138 98 61 105 callgsubr
          80 138 85 -15 callgsubr
          -123 -607 rmoveto
          -61 callsubr
        </CharString>
        <CharString name="S">
          -16 -12 123 464 123 12 callgsubr
          hintmask 00000000
          hintmask 11100100
          330 -12 rmoveto
          171 122 60 154 hvcurveto
          hintmask 11010100
          -36 callsubr
          hintmask 11011000
          -73 callgsubr
          hintmask 11010100
          -36 callgsubr
          hintmask 11100100
          -95 -53 38 58 hvcurveto
          5 1 9 2 vvcurveto
          -147 hlineto
          -5 -1 -9 -8 vvcurveto
          -141 135 -72 153 vhcurveto
          endchar
        </CharString>
        <CharString name="Sacute">
          -16 34 callgsubr
          29 callgsubr
          281 -80 callsubr
          hintmask 11110010
          -30 -880 -92 callsubr
        </CharString>
        <CharString name="Sacute.loclPLK">
          -16 81 callsubr
          131 29 callgsubr
          281 736 -39 callgsubr
          hintmask 11110010
          20 -879 -92 callsubr
        </CharString>
        <CharString name="Scaron">
          -16 133 callgsubr
          29 callgsubr
          273 733 -101 callsubr
          hintmask 11110010
          163 -880 -92 callsubr
        </CharString>
        <CharString name="Scedilla">
          -16 68 callgsubr
          23 121 110 callsubr
          82 46 callsubr
          -9 144 -130 146 hintmask 1001101000100000
          336 -182 rmoveto
          hintmask 1011101010000000
          54 82 14 67 46 -45 19 -53 3 hvcurveto
          hintmask 1001101100100000
          3 23 rlineto
          146 10 100 62 140 -36 callsubr
          hintmask 1001101001000000
          -73 callgsubr
          hintmask 1001101000100000
          -36 callgsubr
          hintmask 1001110000100000
          -95 -53 38 58 hvcurveto
          5 1 9 2 vvcurveto
          -147 hlineto
          -5 -1 -9 -8 vvcurveto
          -129 113 -72 137 -10 vhcurveto
          hintmask 1011101100100000
          -10 -67 rlineto
          hintmask 1011101010000000
          -24 callsubr
          hintmask 0101101000100000
          -49 vlineto
          hintmask 1001101000100000
          -5 30 40 -3 34 hhcurveto
          endchar
        </CharString>
        <CharString name="Scircumflex">
          -16 133 callgsubr
          29 callgsubr
          11 callsubr
          hintmask 11110010
          57 -880 -92 callsubr
        </CharString>
        <CharString name="Scommaaccent">
          -16 -138 98 28 123 110 callsubr
          60 138 60 144 -130 146 hintmask 00000000
          hintmask 01110101
          330 -12 rmoveto
          171 122 60 154 hvcurveto
          hintmask 01101101
          -36 callsubr
          hintmask 01101110
          -73 callgsubr
          hintmask 01101101
          -36 callgsubr
          hintmask 01110101
          -95 -53 38 58 hvcurveto
          5 1 9 2 vvcurveto
          -147 hlineto
          -5 -1 -9 -8 vvcurveto
          -141 135 -72 153 vhcurveto
          -62 -218 rmoveto
          hintmask 11101101
          -61 callsubr
        </CharString>
        <CharString name="T">
          -72 21 -5 callgsubr
          endchar
        </CharString>
        <CharString name="Tbar">
          -72 21 -21 352 91 118 125 115 callgsubr
          233 hmoveto
          145 352 89 91 -89 118 212 125 -569 -125 212 -118 -89 -91 89 hlineto
          endchar
        </CharString>
        <CharString name="Tcaron">
          -72 21 -21 561 125 47 135 115 callgsubr
          245 733 -101 callsubr
          94 -868 rmoveto
          43 callgsubr
          endchar
        </CharString>
        <CharString name="Thorn">
          -16 21 -21 129 123 204 123 107 -20 -25 callsubr
          266 147 vstem
          67 hmoveto
          145 129 92 callgsubr
          -182 107 -145 hlineto
          145 -434 rmoveto
          204 169 88 callgsubr
          endchar
        </CharString>
        <CharString name="U">
          -16 callgsubr
          48 callgsubr
          360 -12 rmoveto
          -103 callgsubr
          endchar
        </CharString>
        <CharString name="Uacute">
          39 -12 123 575 -20 70 132 hstem
          67 145 298 145 29 callsubr
          -27 -880 rmoveto
          -103 callgsubr
          endchar
        </CharString>
        <CharString name="Ubreve">
          -16 callgsubr
          65 89 48 callgsubr
          360 -57 callsubr
          -743 vmoveto
          -103 callgsubr
          endchar
        </CharString>
        <CharString name="Ucircumflex">
          39 -12 123 575 23 callgsubr
          60 -880 rmoveto
          -103 callgsubr
          endchar
        </CharString>
        <CharString name="Udieresis">
          -16 callgsubr
          84 118 -14 callsubr
          -15 -20 callsubr
          -16 145 112 callsubr
          197 750 -97 callgsubr
          hintmask 11110010
          -47 -880 rmoveto
          -103 callgsubr
          endchar
        </CharString>
        <CharString name="Ugrave">
          39 -12 123 575 -20 70 132 48 callgsubr
          308 -38 callsubr
          160 -877 rmoveto
          -103 callgsubr
          endchar
        </CharString>
        <CharString name="Uhorn">
          -52 callsubr
          endchar
        </CharString>
        <CharString name="Uhungarumlaut">
          39 -12 123 575 -20 70 132 48 callgsubr
          221 -80 callsubr
          96 -132 -102 callsubr
          -115 -880 rmoveto
          -103 callgsubr
          endchar
        </CharString>
        <CharString name="Umacron">
          -16 callgsubr
          90 88 48 callgsubr
          208 756 -44 callsubr
          152 -856 rmoveto
          -103 callgsubr
          endchar
        </CharString>
        <CharString name="Uogonek">
          39 -182 69 101 38 callgsubr
          -14 callsubr
          120 177 1 145 hintmask 00000000
          hintmask 11111000
          438 20 callgsubr
          -24 vlineto
          -35 -13 25 26 23 13 23 11 15 hvcurveto
          hintmask 11110100
          123 28 71 86 142 vvcurveto
          431 -145 -424 vlineto
          -100 -56 -51 -94 -94 -54 51 100 vhcurveto
          424 -145 -431 vlineto
          -177 110 -90 183 vhcurveto
          hintmask 11111000
          -15 -21 -13 -25 -36 89 callgsubr
          vhcurveto
          endchar
        </CharString>
        <CharString name="Uring">
          -16 callgsubr
          35 57 88 57 -14 callsubr
          48 57 88 57 48 145 hintmask 00000000
          hintmask 11111111
          361 701 -78 callgsubr
          -1 -770 rmoveto
          184 111 90 177 hvcurveto
          hintmask 11011111
          431 -145 -424 vlineto
          -100 -56 -51 -94 -94 -54 51 100 vhcurveto
          424 -145 -431 vlineto
          hintmask 11111111
          -177 110 -90 183 vhcurveto
          endchar
        </CharString>
        <CharString name="Utilde">
          -16 callgsubr
          80 85 -48 85 -14 callsubr
          -19 60 callsubr
          -19 145 hintmask 11101001
          193 746 rmoveto
          hintmask 11100101
          27 callsubr
          hintmask 11011001
          -47 callsubr
          hintmask 11101001
          -47 callgsubr
          167 -758 rmoveto
          -103 callgsubr
          endchar
        </CharString>
        <CharString name="V">
          -16 0 168 -147 74 callsubr
          hstemhm
          4 658 hintmask 01110000
          252 hmoveto
          162 hlineto
          248 686 rlineto
          -151 hlineto
          -128 -376 rlineto
          hintmask 10110000
          -12 -34 -31 -108 0 vvcurveto
          -5 hlineto
          0 -33 108 -12 34 vhcurveto
          -129 376 rlineto
          -157 hlineto
          endchar
        </CharString>
        <CharString name="W">
          25 callsubr
          hstemhm
          2 940 hintmask 10110000
          184 hmoveto
          157 hlineto
          hintmask 11010000
          -95 callgsubr
        </CharString>
        <CharString name="Wacute">
          25 callsubr
          70 132 hstemhm
          2 940 hintmask 10111000
          419 -80 callsubr
          -314 -868 rmoveto
          157 hlineto
          hintmask 11011000
          -95 callgsubr
        </CharString>
        <CharString name="Wcircumflex">
          25 callsubr
          67 135 hstemhm
          2 940 hintmask 10111000
          305 -77 callsubr
          -227 -868 rmoveto
          157 hlineto
          hintmask 11011000
          -95 callgsubr
        </CharString>
        <CharString name="Wdieresis">
          25 callsubr
          84 118 hstemhm
          308 -20 callsubr
          hintmask 10111100
          308 750 -97 callgsubr
          -334 -868 rmoveto
          157 hlineto
          hintmask 11011100
          -95 callgsubr
        </CharString>
        <CharString name="Wgrave">
          25 callsubr
          70 132 hstemhm
          2 940 hintmask 10111000
          419 -38 callsubr
          -127 -865 rmoveto
          157 hlineto
          hintmask 11011000
          -95 callgsubr
        </CharString>
        <CharString name="X">
          85 callgsubr
          hstem
          0 666 vstem
          0 vmoveto
          164 hlineto
          160 258 rlineto
          5 hlineto
          162 -258 rlineto
          175 hlineto
          -238 362 216 324 rlineto
          -164 hlineto
          -138 -222 rlineto
          -5 hlineto
          -139 222 rlineto
          -176 hlineto
          215 -326 rlineto
          endchar
        </CharString>
        <CharString name="Y">
          85 callgsubr
          hstem
          262 145 vstem
          262 hmoveto
          -89 callgsubr
          endchar
        </CharString>
        <CharString name="Y.loclGUA">
          33 callgsubr
          -25 callsubr
          243 145 vstem
          322 -12 rmoveto
          -96 callsubr
          -115 96 -58 159 vhcurveto
          endchar
        </CharString>
        <CharString name="Yacute">
          -16 47 callgsubr
          262 145 vstem
          281 -80 callsubr
          -98 -868 rmoveto
          -89 callgsubr
          endchar
        </CharString>
        <CharString name="Yacute.loclGUA">
          33 callgsubr
          70 132 hstem
          67 145 243 145 vstem
          281 -80 callsubr
          -38 -880 rmoveto
          -96 callsubr
          -115 96 -58 159 vhcurveto
          endchar
        </CharString>
        <CharString name="Ycircumflex">
          85 callgsubr
          67 135 hstem
          262 51 callgsubr
          -11 -868 rmoveto
          -89 callgsubr
          endchar
        </CharString>
        <CharString name="Ycircumflex.loclGUA">
          33 callgsubr
          67 135 -25 callsubr
          243 51 callgsubr
          49 -880 rmoveto
          -96 callsubr
          -115 96 -58 159 vhcurveto
          endchar
        </CharString>
        <CharString name="Ydieresis">
          85 callgsubr
          84 118 hstemhm
          170 128 callgsubr
          hintmask 11110100
          170 750 -97 callgsubr
          hintmask 11101000
          -118 -868 rmoveto
          -89 callgsubr
          endchar
        </CharString>
        <CharString name="Ydieresis.loclGUA">
          33 callgsubr
          84 118 -14 callsubr
          -42 -20 callsubr
          -44 145 hintmask 10111001
          170 750 rmoveto
          hintmask 10110101
          118 118 hlineto
          hintmask 10111010
          -118 hlineto
          210 -118 rmoveto
          hintmask 10111001
          119 118 hlineto
          hintmask 10111010
          -119 hlineto
          -58 -880 rmoveto
          hintmask 11111001
          -96 callsubr
          hintmask 10111010
          -115 96 -58 159 vhcurveto
          endchar
        </CharString>
        <CharString name="Ygrave">
          -16 47 callgsubr
          262 145 vstem
          281 -38 callsubr
          89 -865 rmoveto
          -89 callgsubr
          endchar
        </CharString>
        <CharString name="Ygrave.loclGUA">
          33 callgsubr
          70 132 hstem
          67 145 243 145 vstem
          281 -38 callsubr
          149 -877 rmoveto
          -96 callsubr
          -115 96 -58 159 vhcurveto
          endchar
        </CharString>
        <CharString name="Z">
          65 callsubr
          hstem
          17 569 vstem
          17 hmoveto
          -73 callsubr
          endchar
        </CharString>
        <CharString name="Zacute">
          65 callsubr
          50 132 hstem
          17 569 vstem
          253 -80 callsubr
          -315 -868 rmoveto
          -73 callsubr
          endchar
        </CharString>
        <CharString name="Zacute.loclPLK">
          65 callsubr
          50 131 hstem
          17 569 vstem
          253 736 -39 callgsubr
          -265 -867 rmoveto
          -73 callsubr
          endchar
        </CharString>
        <CharString name="Zcaron">
          65 callsubr
          47 135 hstem
          17 569 vstem
          245 733 -101 callsubr
          -122 -868 rmoveto
          -73 callsubr
          endchar
        </CharString>
        <CharString name="Zdotaccent">
          65 callsubr
          53 130 hstem
          238 135 vstem
          238 739 -92 callgsubr
          -221 -869 rmoveto
          -73 callsubr
          endchar
        </CharString>
        <CharString name="a">
          -66 callgsubr
          -58 callgsubr
          hintmask 10111010
          192 -12 -99 callsubr
          hintmask 01110110
          -106 callsubr
          hintmask 10111010
          -105 callsubr
          endchar
        </CharString>
        <CharString name="aacute">
          -12 callgsubr
          225 591 -102 callsubr
          -112 -42 callgsubr
          hintmask 01111011
          -106 callsubr
          hintmask 10111101
          -105 callsubr
          endchar
        </CharString>
        <CharString name="abreve">
          -12 -34 callsubr
          -58 callgsubr
          hintmask 1011011010000000
          277 586 -70 callsubr
          hintmask 1011101010000000
          -46 callgsubr
          hintmask 1011011010000000
          -54 callsubr
          hintmask 0111010110000000
          -106 callsubr
          hintmask 1011011010000000
          -105 callsubr
          endchar
        </CharString>
        <CharString name="acircumflex">
          -66 callgsubr
          50 135 -66 66 -58 callgsubr
          hintmask 1011101010000000
          41 callgsubr
          hintmask 1011011010000000
          56 69 rlineto
          hintmask 1011101010000000
          -66 callsubr
          hintmask 0111100110000000
          -106 callsubr
          hintmask 1011101010000000
          -105 callsubr
          endchar
        </CharString>
        <CharString name="acute">
          121 callsubr
          75 213 vstem
          75 591 -102 callsubr
          endchar
        </CharString>
        <CharString name="acute.loclPLK">
          -350 591 131 hstem
          90 153 vstem
          90 591 -39 callgsubr
          endchar
        </CharString>
        <CharString name="adieresis">
          -66 callgsubr
          67 118 -62 callsubr
          -74 -20 callsubr
          -96 137 hintmask 1011100101000000
          114 605 -61 callgsubr
          hintmask 1011110010000000
          210 -118 rmoveto
          119 118 -119 hlineto
          -132 -735 -72 callgsubr
          hintmask 1011100101000000
          -44 13 39 -25 54 hhcurveto
          39 26 9 7 14 hvcurveto
          hintmask 0111101001000000
          -106 callsubr
          hintmask 1011110001000000
          -188 -130 -44 -142 hvcurveto
          hintmask 1011110010000000
          -128 106 -20 57 vhcurveto
          hintmask 1011110001000000
          43 108 rmoveto
          -47 -20 24 31 65 87 15 92 hvcurveto
          -16 vlineto
          -66 -30 -53 -82 vhcurveto
          endchar
        </CharString>
        <CharString name="ae">
          129 callsubr
          -62 callsubr
          183 139 202 142 hintmask 11110110
          232 -12 -2 callsubr
          hintmask 11101110
          51 callsubr
          hintmask 11110110
          0 callgsubr
        </CharString>
        <CharString name="aeacute">
          129 callsubr
          53 132 -62 callsubr
          183 139 202 142 hintmask 11111011
          392 591 -102 callsubr
          -239 -735 -2 callsubr
          hintmask 11110111
          51 callsubr
          hintmask 11111011
          0 callgsubr
        </CharString>
        <CharString name="agrave">
          -12 callgsubr
          225 -22 callgsubr
          75 -732 -99 callsubr
          hintmask 01111011
          -106 callsubr
          hintmask 10111101
          -105 callsubr
          endchar
        </CharString>
        <CharString name="amacron">
          -66 callgsubr
          73 88 100 callsubr
          125 611 -44 callsubr
          67 -711 -99 callsubr
          hintmask 01111011
          -106 callsubr
          hintmask 10111101
          -105 callsubr
          endchar
        </CharString>
        <CharString name="ampersand">
          39 -12 111 193 112 183 111 hstemhm
          43 141 -124 139 260 137 hintmask 11110100
          322 -12 rmoveto
          179 95 85 131 hvcurveto
          88 95 112 -232 -203 vlineto
          -65 -43 -37 -92 -90 -50 31 67 77 60 18 66 vhcurveto
          66 112 -69 hlineto
          hintmask 11101100
          -58 -50 32 56 59 43 36 90 84 43 -29 -57 hvcurveto
          -19 137 28 vlineto
          114 -107 74 -155 -164 -110 -66 -122 -86 52 -39 71 -29 vhcurveto
          -4 vlineto
          hintmask 11110100
          -80 -22 -60 -50 -96 vvcurveto
          -122 116 -74 163 vhcurveto
          endchar
        </CharString>
        <CharString name="ampersand.alt">
          39 -14 109 -95 127 -106 -21 591 107 hstemhm
          61 138 -51 128 129 125 -3 127 hintmask 00000000
          hintmask 00111001
          702 hmoveto
          hintmask 01011001
          -116 127 39 57 26 75 3 95 rlinecurve
          -127 hlineto
          -1 -53 -10 -45 -16 -35 -109 119 rcurveline
          hintmask 00110110
          92 45 47 80 71 vvcurveto
          108 -89 54 -94 -102 -97 -64 -127 -48 15 -43 34 -42 vhcurveto
          hintmask 10011010
          -74 -34 -62 -62 -91 vvcurveto
          -130 108 -71 140 64 67 17 38 58 vhcurveto
          hintmask 00110110
          37 -41 rlineto
          -194 591 rmoveto
          34 30 -23 -48 -41 -22 -41 -60 -26 hvcurveto
          -28 28 -19 35 39 vvcurveto
          51 29 26 36 vhcurveto
          hintmask 10011010
          -19 -496 rmoveto
          -69 -54 39 60 54 23 31 44 18 hvcurveto
          156 -172 rlineto
          -20 -32 -35 -10 -33 hhcurveto
          endchar
        </CharString>
        <CharString name="aogonek">
          -182 69 101 108 -82 -21 238 91 110 106 -58 callgsubr
          -114 177 hintmask 0000000000000000
          hintmask 1101110010000000
          476 -182 rmoveto
          35 36 14 0 hvcurveto
          55 -24 vlineto
          -38 -10 20 21 32 43 28 29 16 hvcurveto
          96 vlineto
          hintmask 1101101100000000
          -28 hlineto
          -18 -17 10 25 hvcurveto
          232 vlineto
          108 -68 63 -147 -129 -85 -58 -88 -9 0 -7 1 -6 vhcurveto
          132 15 hlineto
          21 18 26 67 63 11 -33 -40 vhcurveto
          -37 vlineto
          hintmask 1101110010000000
          -188 -130 -44 -142 -128 106 -20 57 -67 callsubr
          hintmask 1011110010000000
          10 -33 24 -23 35 -8 rrcurveto
          -34 -24 -27 -30 -43 vvcurveto
          hintmask 1101110010000000
          -59 50 -19 56 vhcurveto
          hintmask 1101110100000000
          -241 278 rmoveto
          -47 -20 24 31 65 87 15 92 hvcurveto
          -16 vlineto
          -66 -30 -53 -82 vhcurveto
          endchar
        </CharString>
        <CharString name="approxequal">
          -134 53 120 -59 120 30 120 -59 120 hstemhm
          27 493 hintmask 01011000
          27 252 rmoveto
          0 59 73 84 vhcurveto
          hintmask 01101000
          35 callgsubr
          -331 vmoveto
          0 59 73 84 vhcurveto
          hintmask 10011000
          35 callgsubr
          endchar
        </CharString>
        <CharString name="aring">
          -66 callgsubr
          18 57 88 57 -62 callsubr
          -11 57 88 57 -32 137 hintmask 0000000000000000
          hintmask 1011110011000000
          278 556 -78 callgsubr
          hintmask 1011011010100000
          -86 -625 -99 callsubr
          hintmask 0111010100100000
          -106 callsubr
          hintmask 1011011010100000
          -105 callsubr
          endchar
        </CharString>
        <CharString name="aringacute">
          -66 callgsubr
          18 57 88 57 19 132 -62 callsubr
          -11 57 88 57 -32 137 hintmask 1011001001010000
          225 777 -102 callsubr
          hintmask 1011111001100000
          -26 -353 -78 callgsubr
          hintmask 1011001101010000
          -86 -625 -99 callsubr
          hintmask 0111001010010000
          -106 callsubr
          hintmask 1011001101010000
          -105 callsubr
          endchar
        </CharString>
        <CharString name="arrowboth">
          317 198 109 hstem
          42 918 vstem
          239 69 rmoveto
          52 hlineto
          -53 129 rlineto
          526 hlineto
          -53 -129 rlineto
          119 callgsubr
          173 rlineto
          -52 hlineto
          53 -129 rlineto
          -526 hlineto
          53 129 112 callgsubr
        </CharString>
        <CharString name="arrowdown">
          124 callsubr
          198 108 vstem
          241 -207 rmoveto
          21 hlineto
          174 94 callsubr
          722 -108 -722 125 callgsubr
          endchar
        </CharString>
        <CharString name="arrowleft">
          120 callsubr
          239 68 rmoveto
          52 hlineto
          -53 130 rlineto
          722 108 -722 hlineto
          53 130 112 callgsubr
        </CharString>
        <CharString name="arrowright">
          120 callsubr
          711 68 rmoveto
          119 callgsubr
          174 rlineto
          -52 hlineto
          53 -130 rlineto
          -722 -108 722 hlineto
          endchar
        </CharString>
        <CharString name="arrowup">
          124 callsubr
          197 109 vstem
          197 -207 rmoveto
          109 722 hlineto
          129 -53 rlineto
          52 vlineto
          -173 197 rlineto
          -21 hlineto
          -173 -197 rlineto
          -52 vlineto
          129 53 rlineto
          endchar
        </CharString>
        <CharString name="arrowupdn">
          124 callsubr
          195 108 vstem
          239 -207 rmoveto
          21 hlineto
          173 94 callsubr
          526 53 callgsubr
          -526 125 callgsubr
          endchar
        </CharString>
        <CharString name="arrowupdnbse">
          -183 -233 86 hstem
          195 108 vstem
          239 -100 rmoveto
          21 hlineto
          173 94 callsubr
          419 53 callgsubr
          -419 125 callgsubr
          1 -330 rmoveto
          367 86 -367 hlineto
          endchar
        </CharString>
        <CharString name="asciicircum">
          -214 564 122 0 -20 hstemhm
          25 420 hintmask 01100000
          25 294 rmoveto
          110 hlineto
          hintmask 10100000
          99 270 101 -270 rlineto
          110 hlineto
          -157 392 rlineto
          -107 hlineto
          endchar
        </CharString>
        <CharString name="asciitilde">
          -99 211 119 -59 119 hstemhm
          41 502 hintmask 01100000
          41 199 rmoveto
          0 60 72 85 vhcurveto
          hintmask 10100000
          78 58 -60 76 hhcurveto
          97 48 72 0 hvcurveto
          119 vlineto
          0 -60 -72 -85 vhcurveto
          hintmask 01100000
          -78 -58 60 -76 hhcurveto
          -97 -48 -72 0 hvcurveto
          endchar
        </CharString>
        <CharString name="asterisk">
          -294 686 -20 hstem
          31 323 vstem
          151 362 rmoveto
          83 hlineto
          -17 119 96 -74 41 71 -112 46 112 47 -41 70 -96 -73 17 118 rlineto
          -83 hlineto
          17 -119 -96 74 -41 -70 112 -47 -112 -46 41 -71 96 74 rlineto
          endchar
        </CharString>
        <CharString name="at">
          292 -153 77 97 98 -97 92 128 83 100 96 100 77 hstemhm
          39 88 162 126 -102 121 144 125 157 89 hintmask 1011111101100000
          469 -153 rmoveto
          51 93 11 16 50 hvcurveto
          82 vlineto
          -18 -43 -96 -14 -55 hhcurveto
          -234 -108 113 224 243 146 117 234 208 145 -88 -211 -157 -63 -51 -55 -23 -16 9 32 hvcurveto
          211 vlineto
          98 -62 57 -134 vhcurveto
          hintmask 1011111011100000
          -117 -77 -53 -80 -8 0 -6 1 -6 hvcurveto
          120 14 hlineto
          19 16 24 61 57 10 -30 -37 vhcurveto
          -33 vlineto
          hintmask 1101111101100000
          -171 -118 -40 -130 -116 96 -18 52 77 41 25 38 31 hvcurveto
          6 hlineto
          hintmask 1011111101100000
          0 25 -62 96 98 138 72 227 268 -188 109 -253 -253 -216 -117 -319 -289 165 -126 265 vhcurveto
          hintmask 1101111101100000
          7 272 rmoveto
          -42 -19 22 28 59 79 14 84 hvcurveto
          -15 vlineto
          -60 -27 -48 -75 vhcurveto
          endchar
        </CharString>
        <CharString name="atilde">
          -66 callgsubr
          63 85 -48 85 -62 callsubr
          -78 70 167 137 -108 70 hintmask 0000000000000000
          hintmask 1011100011000000
          110 125 callsubr
          hintmask 1011010011000000
          -57 callgsubr
          hintmask 1011101000100000
          -48 callsubr
          hintmask 1011011000100000
          -68 callgsubr
          hintmask 1011100010100000
          -48 callgsubr
          -47 callsubr
          hintmask 1011100011000000
          -47 callgsubr
          hintmask 1011101001000000
          82 -613 -99 callsubr
          hintmask 0111100101000000
          -106 callsubr
          hintmask 1011101001000000
          -105 callsubr
          endchar
        </CharString>
        <CharString name="b">
          -72 -12 119 -107 107 312 119 185 -20 -13 callgsubr
          225 141 hintmask 10111100
          364 -12 rmoveto
          129 81 85 191 189 -87 85 -116 -71 -55 -26 -47 -31 hvcurveto
          -6 258 -137 hlineto
          hintmask 01111100
          -723 117 vlineto
          hintmask 10111100
          9 69 rlineto
          7 hlineto
          -54 34 59 -27 67 hhcurveto
          -44 119 rmoveto
          -78 -34 52 95 hvcurveto
          16 vlineto
          95 34 54 94 callgsubr
        </CharString>
        <CharString name="backslash">
          130 callgsubr
          181 -49 rmoveto
          96 hlineto
          -181 784 rlineto
          -95 hlineto
          endchar
        </CharString>
        <CharString name="bar">
          103 callsubr
          -173 rmoveto
          100 896 -100 hlineto
          endchar
        </CharString>
        <CharString name="braceleft">
          102 callsubr
          29 80 17 118 hintmask 10110100
          343 -159 rmoveto
          77 vlineto
          -46 -53 10 51 66 -5 63 -2 67 hvcurveto
          hintmask 11110100
          68 -3 -33 40 -92 hhcurveto
          10 vlineto
          hintmask 10110100
          92 34 40 68 2 hvcurveto
          2 67 5 63 66 vvcurveto
          51 56 10 43 vhcurveto
          77 vlineto
          -134 -83 -22 -126 hvcurveto
          -193 vlineto
          -45 -51 -15 -46 vhcurveto
          hintmask 11111100
          -92 vlineto
          hintmask 11110100
          46 51 -15 -45 hvcurveto
          -193 vlineto
          hintmask 10110100
          -126 83 -22 134 vhcurveto
          endchar
        </CharString>
        <CharString name="braceright">
          102 callsubr
          145 118 17 80 hintmask 10111000
          46 -159 rmoveto
          134 83 22 126 hvcurveto
          hintmask 11111000
          193 vlineto
          45 51 15 46 vhcurveto
          hintmask 10111100
          92 vlineto
          hintmask 10111000
          -46 -51 15 45 hvcurveto
          193 vlineto
          126 -83 22 -134 vhcurveto
          -77 vlineto
          43 56 -10 -51 -66 5 -63 2 -67 hvcurveto
          -68 2 34 -40 92 hhcurveto
          -10 vlineto
          hintmask 11111000
          -92 -33 -40 -68 -3 hvcurveto
          -2 -67 -5 -63 -66 vvcurveto
          -51 -53 -10 -46 vhcurveto
          endchar
        </CharString>
        <CharString name="bracketleft">
          -350 -161 95 706 95 hstem
          71 116 vstem
          71 -161 rmoveto
          216 95 -100 706 100 95 -216 hlineto
          endchar
        </CharString>
        <CharString name="bracketright">
          -350 -161 95 706 95 hstem
          146 116 vstem
          46 -161 rmoveto
          216 896 -216 -95 100 -706 -100 hlineto
          endchar
        </CharString>
        <CharString name="breve">
          -350 586 103 callgsubr
          hstemhm
          5 323 hintmask 01100000
          166 586 -70 callsubr
          hintmask 10100000
          -46 callgsubr
          hintmask 01100000
          -91 callsubr
          endchar
        </CharString>
        <CharString name="brokenbar">
          103 callsubr
          357 rmoveto
          100 366 -100 hlineto
          -896 vmoveto
          100 366 -100 hlineto
          endchar
        </CharString>
        <CharString name="bullet">
          -333 208 271 hstem
          40 271 vstem
          175 208 rmoveto
          75 61 60 75 75 -61 61 -75 -75 -60 -61 -75 -75 60 -60 75 hvcurveto
          endchar
        </CharString>
        <CharString name="c">
          67 callsubr
          hstem
          77 callsubr
          vstem
          289 -12 -90 callgsubr
        </CharString>
        <CharString name="cacute">
          67 callsubr
          53 132 hstem
          77 callsubr
          vstem
          225 591 -102 callsubr
          -15 -735 -90 callgsubr
        </CharString>
        <CharString name="cacute.loclPLK">
          67 callsubr
          53 131 hstem
          77 callsubr
          vstem
          225 591 -39 callgsubr
          35 -734 -90 callgsubr
        </CharString>
        <CharString name="caron">
          -350 588 135 hstem
          0 333 vstem
          106 588 -101 callsubr
          endchar
        </CharString>
        <CharString name="ccaron">
          67 callsubr
          50 135 hstem
          77 callsubr
          vstem
          217 588 -101 callsubr
          178 -735 -90 callgsubr
        </CharString>
        <CharString name="ccedilla">
          68 callgsubr
          43 -21 24 -21 436 110 hstemhm
          38 139 50 46 callsubr
          -25 132 hintmask 0000000000000000
          hintmask 1010111101000000
          293 98 rmoveto
          -83 -33 56 101 hvcurveto
          16 vlineto
          101 32 56 77 60 35 -35 -65 vhcurveto
          138 hlineto
          141 -94 69 -136 -166 -85 -86 -189 vhcurveto
          hintmask 1000111101000000
          -166 65 -87 129 -18 vhcurveto
          hintmask 1010111101000000
          -10 -69 rlineto
          hintmask 1010111010000000
          -24 callsubr
          hintmask 0100111101000000
          -49 vlineto
          hintmask 1010111010000000
          -10 callsubr
          hintmask 1001011101000000
          3 22 rlineto
          hintmask 1010111101000000
          122 9 80 68 132 vvcurveto
          -132 hlineto
          -64 -37 -36 -57 vhcurveto
          endchar
        </CharString>
        <CharString name="ccircumflex">
          67 callsubr
          50 135 -66 66 hstemhm
          77 callsubr
          hintmask 11101100
          41 callgsubr
          hintmask 11011100
          56 69 rlineto
          hintmask 11101100
          -102 callgsubr
          72 -735 -90 callgsubr
        </CharString>
        <CharString name="cdotaccent">
          67 callsubr
          56 130 hstem
          38 139 33 135 42 132 vstem
          210 21 callgsubr
          79 -736 -90 callgsubr
        </CharString>
        <CharString name="cedilla">
          -350 -182 57 -28 -21 97 88 hstemhm
          178 107 hintmask 10110000
          149 -182 rmoveto
          54 82 14 67 46 -45 19 -53 3 hvcurveto
          6 44 rlineto
          -85 hlineto
          -13 -88 rlineto
          -24 callsubr
          hintmask 01110000
          -49 vlineto
          hintmask 10110000
          -5 30 40 -3 34 hhcurveto
          endchar
        </CharString>
        <CharString name="cent">
          408 209 106 -20 hstemhm
          38 139 82 51 71 138 -132 132 hintmask 11110100
          259 -49 rmoveto
          51 117 hlineto
          125 7 84 68 135 vvcurveto
          -132 hlineto
          -58 -30 -35 -47 -6 vhcurveto
          327 vlineto
          hintmask 11111000
          45 -9 26 -33 -56 vvcurveto
          138 hlineto
          133 -85 69 -124 7 vhcurveto
          106 -51 -106 vlineto
          -147 -10 -74 -87 -177 vvcurveto
          -178 74 -86 147 -10 vhcurveto
          112 vmoveto
          -58 14 -24 54 86 vvcurveto
          16 vlineto
          88 24 54 58 12 vhcurveto
          endchar
        </CharString>
        <CharString name="circumflex">
          -350 588 135 -66 66 hstemhm
          0 333 hintmask 10100000
          588 vmoveto
          -56 callsubr
          hintmask 01100000
          56 69 rlineto
          hintmask 10100000
          -102 callgsubr
          endchar
        </CharString>
        <CharString name="colon">
          53 callsubr
          -526 vmoveto
          -33 callgsubr
          endchar
        </CharString>
        <CharString name="comma">
          -405 0 137 hstem
          70 138 vstem
          70 -156 rmoveto
          -41 callgsubr
          endchar
        </CharString>
        <CharString name="copyright">
          54 -12 62 81 66 289 66 84 62 hstem
          13 64 112 79 182 78 131 -32 callsubr
          81 vmoveto
          115 45 78 88 hvcurveto
          -74 hlineto
          -65 -24 -35 -62 -71 -29 41 103 105 31 40 69 63 19 -31 -69 vhcurveto
          78 hlineto
          108 -47 58 -113 -122 -57 -66 -145 -144 56 -66 123 vhcurveto
          endchar
        </CharString>
        <CharString name="currency">
          102 79 338 79 hstem
          33 82 326 82 vstem
          74 99 rmoveto
          55 58 rlineto
          -37 40 55 -18 54 hhcurveto
          54 55 18 37 40 hvcurveto
          55 -58 45 45 -54 56 rlineto
          34 42 16 54 55 vvcurveto
          55 -16 56 -34 39 vhcurveto
          55 54 -48 48 -57 -56 rlineto
          33 -38 -54 18 -53 hhcurveto
          -53 -54 -18 -33 -38 hvcurveto
          -57 56 -48 -48 55 -54 rlineto
          -34 -39 -16 -56 -55 vvcurveto
          -55 16 -54 34 -42 vhcurveto
          -54 -56 rlineto
          249 37 rmoveto
          -91 -72 79 91 89 73 79 90 90 73 -79 -89 -91 -72 -79 -91 hvcurveto
          endchar
        </CharString>
        <CharString name="d">
          -72 118 callsubr
          185 -20 66 callgsubr
          hintmask 10011110
          18 callgsubr
          hintmask 01101110
          7 callsubr
          hintmask 10011110
          2 callgsubr
          84 callgsubr
          hvcurveto
          44 119 -24 callgsubr
          endchar
        </CharString>
        <CharString name="dagger">
          -152 -21 859 -20 hstem
          230 94 vstem
          220 -173 rmoveto
          114 hlineto
          -20 598 206 -18 rlineto
          113 vlineto
          -206 71 callgsubr
          rlineto
          endchar
        </CharString>
        <CharString name="daggerdbl">
          -152 -21 190 -21 690 -20 hstem
          36 484 vstem
          224 -173 rmoveto
          108 hlineto
          -17 186 205 -17 rlineto
          113 vlineto
          -205 -18 20 169 -20 165 205 -18 rlineto
          113 vlineto
          -205 71 callgsubr
          -20 -165 20 -169 -205 18 rlineto
          -113 vlineto
          205 17 rlineto
          endchar
        </CharString>
        <CharString name="dcaron">
          36 118 callsubr
          21 127 -127 164 66 callgsubr
          53 138 hintmask 1000101110000000
          18 callgsubr
          hintmask 0110011110000000
          7 callsubr
          hintmask 1001101110000000
          2 callgsubr
          hvcurveto
          hintmask 1000101110000000
          84 callgsubr
          vhcurveto
          346 454 -1 callgsubr
          -357 -452 rmoveto
          -84 -29 52 95 hvcurveto
          18 vlineto
          hintmask 1001101110000000
          73 callsubr
          -54 -95 vhcurveto
          -16 vlineto
          hintmask 1000101110000000
          -95 -34 -52 -78 vhcurveto
          endchar
        </CharString>
        <CharString name="dcroat">
          -72 118 callsubr
          49 71 -71 136 66 callgsubr
          hintmask 00000000
          hintmask 10011011
          598 658 rmoveto
          -58 hlineto
          hintmask 10010111
          65 -137 vlineto
          hintmask 10011011
          -65 -154 vlineto
          hintmask 10100111
          -71 154 -122 -6 vlineto
          hintmask 10010111
          2 callgsubr
          84 callgsubr
          67 59 27 54 34 hvcurveto
          7 hlineto
          hintmask 01010111
          9 -69 rlineto
          117 587 58 hlineto
          -195 -333 rmoveto
          hintmask 10010111
          -95 -34 -52 -78 -84 -29 52 95 vhcurveto
          18 vlineto
          73 callsubr
          -54 -95 vhcurveto
          endchar
        </CharString>
        <CharString name="degree">
          -283 386 82 147 83 hstem
          44 82 147 83 vstem
          200 386 rmoveto
          87 69 69 87 87 -69 69 -87 -87 -69 -69 -87 -87 69 -69 87 hvcurveto
          82 vmoveto
          -41 -33 33 41 41 33 32 41 41 32 -32 -41 -41 -32 -33 -41 hvcurveto
          endchar
        </CharString>
        <CharString name="dieresis">
          -350 605 118 hstem
          2 -20 callsubr
          vstem
          2 -59 callgsubr
          endchar
        </CharString>
        <CharString name="divide">
          -134 1 110 92 105 94 110 hstem
          214 120 vstem
          214 402 rmoveto
          120 110 -120 hlineto
          -175 -309 rmoveto
          472 105 -472 hlineto
          175 -307 rmoveto
          120 110 -120 hlineto
          endchar
        </CharString>
        <CharString name="dollar">
          68 103 281 165 106 -20 hstemhm
          40 129 -119 132 71 51 67 129 -116 132 hintmask 11100101
          253 -49 rmoveto
          51 117 hlineto
          123 6 89 45 119 vvcurveto
          117 -117 27 -95 22 vhcurveto
          110 vlineto
          hintmask 11101110
          41 -6 26 -20 -35 vvcurveto
          -1 128 vlineto
          1 1 11 11 vvcurveto
          84 -85 51 -111 7 vhcurveto
          106 -51 -106 vlineto
          -116 -7 -87 -53 -99 vvcurveto
          -111 109 -28 94 -23 vhcurveto
          -125 vlineto
          hintmask 11110101
          -44 5 -39 20 -1 44 rrcurveto
          7 -128 vlineto
          -1 -5 0 -3 -4 vvcurveto
          -95 77 -65 136 -7 vhcurveto
          349 vmoveto
          hintmask 11101101
          -42 11 -29 14 28 vvcurveto
          25 28 16 43 4 vhcurveto
          51 -344 rmoveto
          111 vlineto
          46 -13 34 -16 -32 vvcurveto
          -34 -39 -13 -41 -3 vhcurveto
          endchar
        </CharString>
        <CharString name="dotaccent">
          -350 594 130 hstem
          100 135 vstem
          100 21 callgsubr
          endchar
        </CharString>
        <CharString name="dotbelowcomb">
          -683 -25 callgsubr
          hstem
          -233 135 vstem
          -233 -173 -92 callgsubr
          endchar
        </CharString>
        <CharString name="dotlessi">
          -405 21 -21 526 87 callsubr
          -38 callgsubr
          hlineto
          endchar
        </CharString>
        <CharString name="e">
          -52 callgsubr
          hstem
          2 callsubr
          vstem
          288 -12 -104 callgsubr
        </CharString>
        <CharString name="eacute">
          -52 callgsubr
          53 132 hstem
          2 callsubr
          vstem
          225 591 -102 callsubr
          -16 -80 callgsubr
        </CharString>
        <CharString name="ebreve">
          -52 callgsubr
          88 callsubr
          65 callgsubr
          hintmask 11101110
          277 586 -70 callsubr
          hintmask 11110110
          -46 callgsubr
          hintmask 11101110
          -91 callsubr
          11 -598 -104 callgsubr
        </CharString>
        <CharString name="ecaron">
          -52 callgsubr
          50 135 hstem
          2 callsubr
          vstem
          217 588 -101 callsubr
          177 -80 callgsubr
        </CharString>
        <CharString name="ecircumflex">
          -52 callgsubr
          50 135 -66 66 65 callgsubr
          hintmask 11110110
          41 callgsubr
          hintmask 11101110
          56 69 rlineto
          hintmask 11110110
          -93 callgsubr
          endchar
        </CharString>
        <CharString name="edieresis">
          -52 callgsubr
          67 118 hstemhm
          36 139 -61 -20 callsubr
          -64 142 hintmask 11110110
          114 -59 callgsubr
          hintmask 11111001
          -36 -80 callgsubr
        </CharString>
        <CharString name="edotaccent">
          -52 callgsubr
          56 130 hstem
          36 139 35 135 34 142 vstem
          210 21 callgsubr
          78 -736 -104 callgsubr
        </CharString>
        <CharString name="egrave">
          -52 callgsubr
          53 132 hstem
          2 callsubr
          79 callsubr
          171 -732 -104 callgsubr
        </CharString>
        <CharString name="eight">
          -12 110 198 109 183 110 hstemhm
          33 141 -124 139 179 138 -124 141 hintmask 11110010
          278 -12 rmoveto
          174 71 90 110 74 -33 59 -77 31 hvcurveto
          hintmask 11101100
          62 33 31 57 65 vvcurveto
          105 -77 86 -151 -151 -77 -86 -105 -65 30 -57 62 -33 vhcurveto
          hintmask 11110010
          -76 -31 -33 -59 -74 vvcurveto
          -110 71 -90 174 vhcurveto
          hintmask 11101100
          417 vmoveto
          -58 -31 32 59 59 31 33 58 57 33 -33 -59 -59 -33 -32 -57 hvcurveto
          hintmask 11110010
          -307 vmoveto
          -67 -37 36 63 63 37 36 67 67 37 -36 -63 -63 -37 -36 -67 hvcurveto
          endchar
        </CharString>
        <CharString name="ellipsis">
          317 0 137 hstem
          98 138 195 138 195 138 vstem
          98 hmoveto
          -33 callgsubr
          333 -137 rmoveto
          -33 callgsubr
          333 -137 rmoveto
          -33 callgsubr
          endchar
        </CharString>
        <CharString name="emacron">
          -52 callgsubr
          73 88 hstem
          2 callsubr
          vstem
          125 611 -44 callsubr
          163 -711 -104 callgsubr
        </CharString>
        <CharString name="emdash">
          317 221 98 hstem
          0 1000 vstem
          221 vmoveto
          1000 98 -1000 hlineto
          endchar
        </CharString>
        <CharString name="endash">
          221 98 hstem
          0 556 vstem
          221 vmoveto
          556 98 -556 hlineto
          endchar
        </CharString>
        <CharString name="eng">
          61 callsubr
          405 80 callsubr
          394 vlineto
          hintmask 11101100
          136 -73 49 -101 -78 -52 -38 -43 -34 vhcurveto
          -7 hlineto
          hintmask 11011100
          -10 69 rlineto
          -117 -526 137 304 hlineto
          hintmask 11101100
          63 45 50 62 57 34 -25 -68 vhcurveto
          -351 vlineto
          -23 callgsubr
          hintmask 11011100
          -8 22 41 -8 31 hhcurveto
          endchar
        </CharString>
        <CharString name="eogonek">
          -182 69 101 70 callgsubr
          109 107 hstemhm
          36 139 163 105 -64 142 hintmask 00000000
          hintmask 11111100
          449 20 callgsubr
          -16 vlineto
          -43 -18 29 49 39 11 28 14 15 hvcurveto
          hintmask 11111010
          32 32 21 46 61 vvcurveto
          -135 hlineto
          -61 -40 -31 -56 -84 -29 47 90 -2 vhcurveto
          346 32 hlineto
          189 -79 86 -154 -168 -84 -64 callsubr
          82 -86 165 vhcurveto
          hintmask 11111100
          25 24 3 7 23 hvcurveto
          -10 -22 -7 -25 -34 vvcurveto
          -75 54 -24 57 vhcurveto
          hintmask 11111010
          -272 504 rmoveto
          72 8 33 37 70 hhcurveto
          55 36 -31 -78 hvcurveto
          endchar
        </CharString>
        <CharString name="equal">
          -99 96 103 109 104 hstem
          56 472 vstem
          56 308 123 callsubr
          -316 vmoveto
          472 103 -472 hlineto
          endchar
        </CharString>
        <CharString name="equivalence">
          -100 17 103 109 104 109 104 hstem
          56 473 vstem
          56 442 rmoveto
          113 callsubr
          -317 vmoveto
          113 callsubr
          -316 vmoveto
          473 103 -473 hlineto
          endchar
        </CharString>
        <CharString name="estimated">
          -83 -12 42 218 42 206 42 hstem
          45 108 298 108 vstem
          302 -12 rmoveto
          104 78 50 80 42 hvcurveto
          -34 21 rlineto
          -67 -34 -68 -42 -88 hhcurveto
          -62 -50 19 34 -37 hvcurveto
          165 406 5 vlineto
          165 -98 120 -159 -160 -97 -116 -159 -159 97 -116 160 vhcurveto
          -149 302 rmoveto
          152 vlineto
          34 37 50 20 62 hhcurveto
          61 50 -20 -35 38 hvcurveto
          -151 vlineto
          endchar
        </CharString>
        <CharString name="eth">
          -72 -12 112 316 112 61 70.5 -70.5 134 -113.5 76.5 -23 60 13 callsubr
          hintmask 11010011
          305 -12 rmoveto
          179 89 85 186 hvcurveto
          hintmask 11001011
          135 -38 113 -83 99 vhcurveto
          92 7 rlineto
          73 vlineto
          -159 -12 rlineto
          hintmask 11010011
          -18 17 -20 16 -22 16 rrcurveto
          -161 hlineto
          -4 -5 rlineto
          hintmask 11000111
          22 -18 22 -18 20 -19 rrcurveto
          hintmask 11100011
          -101 -7 rlineto
          hintmask 11010011
          -73 vlineto
          166 12 23 -28 20 -27 18 -27 rlinecurve
          -5 -4 rlineto
          12 -27 -32 7 -31 hhcurveto
          -143 -74 -104 -165 -186 89 -85 178 61 callgsubr
          -91 -35 53 98 hvcurveto
          16 vlineto
          97 35 52 91 92 35 -52 -97 vhcurveto
          -16 vlineto
          -98 -35 -53 -92 vhcurveto
          endchar
        </CharString>
        <CharString name="exclam">
          -350 0 137 549 -20 hstem
          98 138 vstem
          125 197 rmoveto
          24 callgsubr
          -27 -197 rmoveto
          -33 callgsubr
          endchar
        </CharString>
        <CharString name="exclamdbl">
          -79 0 137 549 -20 hstem
          98 138 133 138 vstem
          125 197 rmoveto
          24 callgsubr
          271 hmoveto
          24 callgsubr
          -298 -197 rmoveto
          -33 callgsubr
          271 -137 rmoveto
          -33 callgsubr
          endchar
        </CharString>
        <CharString name="exclamdown">
          -350 388 137 hstem
          98 138 vstem
          98 388 rmoveto
          -33 callgsubr
          -8 -686 rmoveto
          153 hlineto
          -36 489 rlineto
          -82 hlineto
          -12 -163 -11 -163 -12 -163 rrcurveto
          endchar
        </CharString>
        <CharString name="f">
          -350 104 callgsubr
          vstem
          84 hmoveto
          82 callsubr
          50 hlineto
          -50 callgsubr
          vlineto
          endchar
        </CharString>
        <CharString name="f_f">
          -17 104 callgsubr
          196 137 vstem
          597 619 rmoveto
          50 96 hlineto
          8 -21 -38 8 -29 hhcurveto
          -110 -32 -73 -72 hvcurveto
          -60 -196 50 vlineto
          -50 callgsubr
          -414 137 414 196 -414 82 callsubr
          50 vlineto
          28 15 15 28 vhcurveto
          endchar
        </CharString>
        <CharString name="fi">
          -72 97 callgsubr
          73 124 119 callsubr
          hintmask 11101100
          84 hmoveto
          82 callsubr
          hlineto
          hintmask 11011100
          50 vlineto
          -50 callgsubr
          vlineto
          hintmask 11101100
          320 185 74 callgsubr
        </CharString>
        <CharString name="five">
          -12 112 238 108 118 122 hstem
          36 141 199 141 vstem
          277 -12 rmoveto
          148 92 85 151 151 -88 71 -111 -60 -35 -18 -16 -25 hvcurveto
          9 152 rlineto
          276 122 -397 hlineto
          -27 -380 130 -16 rlineto
          25 19 26 23 44 hhcurveto
          56 42 -36 -78 -83 -39 -41 -60 -63 -37 43 70 hvcurveto
          -141 hlineto
          -140 96 -85 145 vhcurveto
          endchar
        </CharString>
        <CharString name="fiveeighths">
          83 callgsubr
          -43 68 110 67 48 74 12 -20 hstemhm
          41 84 -66 76 79 84 233 95 callgsubr
          hintmask 1101110011100100
          100 -12 rmoveto
          88 hlineto
          hintmask 1101101101100100
          546 710 rlineto
          -88 hlineto
          -476 -379 rmoveto
          79 49 45 81 81 -48 38 -60 hvcurveto
          hintmask 1101110011100100
          -25 -20 -7 -7 -12 hvcurveto
          4 62 rlineto
          143 74 -214 hlineto
          -14 -204 76 -10 rlineto
          14 10 12 11 20 hhcurveto
          25 19 -16 -36 -38 -18 -20 -26 hvcurveto
          hintmask 1101110101100100
          -29 -16 18 30 hvcurveto
          -84 hlineto
          hintmask 1101101101100100
          -73 51 -43 78 vhcurveto
          hintmask 1101110011100100
          492 -331 46 callgsubr
          hintmask 1110110011011000
          -4 callgsubr
          hintmask 1101110011100100
          114 callsubr
          -59 38 -49 93 vhcurveto
          hintmask 1110110011011000
          -4 callsubr
          hintmask 1101110011100100
          -14 callgsubr
        </CharString>
        <CharString name="fl">
          -72 123 callgsubr
          104 119 callsubr
          hintmask 11011100
          84 hmoveto
          82 callsubr
          50 hlineto
          -50 callgsubr
          vlineto
          320 -414 rmoveto
          137 hlineto
          hintmask 11101100
          723 -137 vlineto
          endchar
        </CharString>
        <CharString name="florin">
          -183 112 449 112 129 112 hstem
          23 509 vstem
          107 -183 rmoveto
          109 48 73 72 15 hvcurveto
          89 416 rlineto
          93 hlineto
          23 112 rlineto
          -93 hlineto
          19 86 rlineto
          28 6 18 15 28 hhcurveto
          50 hlineto
          20 96 rlineto
          8 -19 -36 8 -29 hhcurveto
          -110 -48 -73 -72 -15 hvcurveto
          -21 -96 rlineto
          -75 hlineto
          -23 -112 rlineto
          75 hlineto
          -87 -406 rlineto
          -28 -6 -17 -15 -28 hhcurveto
          -50 hlineto
          -20 -96 rlineto
          -8 19 36 -8 29 hhcurveto
          endchar
        </CharString>
        <CharString name="four">
          21 -21 146 112 440 -20 hstem
          314 137 vstem
          314 hmoveto
          137 146 82 112 -82 338 -63 hlineto
          -15 -54 -30 -80 -29 -53 rrcurveto
          -151 -175 vlineto
          42 54 122 210 42 176 rrcurveto
          -141 hlineto
          -43 -171 -63 -144 -78 -125 rrcurveto
          -112 294 vlineto
          endchar
        </CharString>
        <CharString name="fraction">
          40 callgsubr
        </CharString>
        <CharString name="franc">
          21 -21 256 123 -40 137 87 123 hstemhm
          60 145 87 137 hintmask 11011100
          60 hmoveto
          145 256 87 -256 137 192 hlineto
          hintmask 10111100
          96 24 51 63 vhcurveto
          38 128 hlineto
          0 -16 9 -24 -47 -25 -44 -53 -15 vhcurveto
          -7 hlineto
          -11 85 133 callsubr
          hintmask 11011100
          -85 -87 184 212 123 -357 vlineto
          endchar
        </CharString>
        <CharString name="g">
          -28 callsubr
          -28 callgsubr
          195 136 -75 138 -134 134 hintmask 0000000000000000
          hintmask 1111100010000000
          155 -182 -41 callsubr
          hintmask 1111010100000000
          -74 callgsubr
          hintmask 1111001001000000
          -81 callsubr
          hintmask 1111010100000000
          -27 callsubr
          hintmask 1111100100000000
          59 callsubr
          hintmask 1111100010000000
          89 callsubr
          hintmask 1111001100000000
          -64 callgsubr
          hintmask 1111100010000000
          -76 callsubr
        </CharString>
        <CharString name="g_tilde.loclGUA">
          -28 callsubr
          63 85 -48 85 -28 callgsubr
          -68 70 193 136 -133 70 -12 138 -134 134 hintmask 0000000000000000
          hintmask 1111100001100000
          138 125 callsubr
          hintmask 1111010001100000
          -57 callgsubr
          hintmask 1111100010010000
          -48 callsubr
          hintmask 1111010010010000
          -68 callgsubr
          hintmask 1111100001010000
          -48 callgsubr
          -47 callsubr
          hintmask 1111100001100000
          -47 callgsubr
          hintmask 1111101000001000
          17 -783 -41 callsubr
          hintmask 1111100100100000
          -74 callgsubr
          hintmask 1111100010000100
          -81 callsubr
          hintmask 1111100100100000
          -27 callsubr
          hintmask 1111101000100000
          59 callsubr
          hintmask 1111101000001000
          89 callsubr
          hintmask 1111100010100000
          -64 callgsubr
          hintmask 1111101000001000
          -76 callsubr
        </CharString>
        <CharString name="gbreve">
          -28 callsubr
          88 callsubr
          -28 callgsubr
          195 136 -75 138 -134 134 hintmask 1111010011000000
          305 586 -70 callsubr
          hintmask 1111100011000000
          -46 callgsubr
          hintmask 1111010011000000
          -91 callsubr
          hintmask 1111011000100000
          -150 -768 -41 callsubr
          hintmask 1111010101000000
          -74 callgsubr
          hintmask 1111010010010000
          -81 callsubr
          hintmask 1111010101000000
          -27 callsubr
          hintmask 1111011001000000
          59 callsubr
          hintmask 1111011000100000
          89 callsubr
          hintmask 1111010011000000
          -64 callgsubr
          hintmask 1111011000100000
          -76 callsubr
        </CharString>
        <CharString name="gcaron">
          -28 callsubr
          50 135 -28 callgsubr
          195 136 -75 138 -134 134 hintmask 1111100110000000
          245 588 -101 callsubr
          hintmask 1111110001000000
          16 -74 callsubr
        </CharString>
        <CharString name="gcircumflex">
          -28 callsubr
          50 26 -26 135 -66 66 -28 callgsubr
          195 136 -75 138 -104 104 hintmask 1111010001100000
          145 -9 callsubr
          hintmask 1111001001100000
          52 69 rlineto
          hintmask 1111010100010000
          51 -69 -8 callgsubr
          -101 -8 callsubr
          -122 hlineto
          -92 -905 -41 callsubr
          hintmask 1111010010100000
          -74 callgsubr
          hintmask 1111100001001000
          69 16 44 43 75 vvcurveto
          -104 hlineto
          -19 -19 -57 -68 -15 vhcurveto
          10 -30 -36 5 -40 hhcurveto
          -152 -81 -71 -108 -62 26 -49 51 -31 hvcurveto
          hintmask 1111010010100000
          -27 callsubr
          hintmask 1111010100100000
          59 callsubr
          hintmask 1111010100010000
          89 callsubr
          hintmask 1111010001100000
          -64 callgsubr
          hintmask 1111010100010000
          -76 callsubr
        </CharString>
        <CharString name="gcommaaccent">
          -28 callsubr
          47 98 -28 callgsubr
          31 138 26 109 callsubr
          237 585 rmoveto
          138 98 -55 hlineto
          55 97 rlineto
          -72 hlineto
          -66 -109 rlineto
          hintmask 1111110010100000
          -82 -853 -41 callsubr
          hintmask 1111101011000000
          -74 callgsubr
          hintmask 1111100110010000
          -81 callsubr
          hintmask 1111101010100000
          -27 callsubr
          hintmask 1111110010100000
          59 callsubr
          89 callsubr
          hintmask 1111100111000000
          -64 callgsubr
          hintmask 1111110010100000
          -76 callsubr
        </CharString>
        <CharString name="gdotaccent">
          -28 callsubr
          56 130 -28 callgsubr
          32 135 28 109 callsubr
          238 21 callgsubr
          hintmask 1111110010100000
          -83 -906 -41 callsubr
          hintmask 1111101011000000
          -74 callgsubr
          hintmask 1111100110010000
          -81 callsubr
          hintmask 1111101010100000
          -27 callsubr
          hintmask 1111110010100000
          59 callsubr
          89 callsubr
          hintmask 1111100111000000
          -64 callgsubr
          hintmask 1111110010100000
          -76 callsubr
        </CharString>
        <CharString name="germandbls">
          -72 0 111 210 121 183 110 hstemhm
          65 137 59 175 -28 139 -114 138 hintmask 11110100
          65 hmoveto
          137 519 hlineto
          68 43 38 66 67 30 -40 -53 -50 -28 -40 -48 vhcurveto
          hintmask 11111000
          -71 -121 hlineto
          hintmask 11110010
          74 hlineto
          64 34 -47 -58 -57 -34 -48 -64 hvcurveto
          -74 -111 87 hlineto
          139 84 89 118 hvcurveto
          hintmask 11111000
          87 -45 74 -90 24 vhcurveto
          4 vlineto
          hintmask 11110100
          63 23 48 57 80 vvcurveto
          106 -83 73 -149 -140 -110 -64 -160 vhcurveto
          endchar
        </CharString>
        <CharString name="grave">
          121 callsubr
          75 213 vstem
          183 -22 callgsubr
          endchar
        </CharString>
        <CharString name="greater">
          -99 2 520 hstem
          56 474 vstem
          56 2 52 callgsubr
          endchar
        </CharString>
        <CharString name="greaterequal">
          -134 0 104 hstem
          38 474 vstem
          38 123 52 callgsubr
          -241 vmoveto
          113 callsubr
          endchar
        </CharString>
        <CharString name="guillemotleft">
          526 -20 hstem
          59 458 vstem
          195 126 24 callsubr
          359 -200 24 callsubr
          endchar
        </CharString>
        <CharString name="guillemotright">
          526 -20 hstem
          39 458 vstem
          39 126 23 callsubr
          115 -200 23 callsubr
          endchar
        </CharString>
        <CharString name="guilsinglleft">
          -350 526 -20 hstem
          59 235 vstem
          195 126 24 callsubr
          endchar
        </CharString>
        <CharString name="guilsinglright">
          -350 526 -20 hstem
          39 235 vstem
          39 126 23 callsubr
          endchar
        </CharString>
        <CharString name="h">
          26 callsubr
          185 -20 hstem
          71 4 callgsubr
          vstem
          71 hmoveto
          -51 callsubr
          258 -137 hlineto
          endchar
        </CharString>
        <CharString name="hbar">
          26 callsubr
          49 71 -71 136 13 callgsubr
          hintmask 11011100
          71 hmoveto
          -51 callsubr
          122 154 hlineto
          hintmask 11101100
          71 -154 vlineto
          hintmask 11011100
          65 -137 vlineto
          hintmask 11101100
          -65 -58 vlineto
          hintmask 11011100
          -71 58 vlineto
          endchar
        </CharString>
        <CharString name="hcircumflex">
          26 callsubr
          185 -20 45 135 13 callgsubr
          hintmask 00000000
          hintmask 11111100
          -27 748 -99 callgsubr
          -8 -883 rmoveto
          -51 callsubr
          hlineto
          hintmask 11101100
          258 -137 vlineto
          endchar
        </CharString>
        <CharString name="hookabovecomb">
          -683 591 109 callgsubr
          -220 68 -22 107 hintmask 11100000
          -220 97 callsubr
          hintmask 11010000
          -83 callgsubr
          hintmask 11100000
          -95 callsubr
          endchar
        </CharString>
        <CharString name="house">
          -79 0 70 hstem
          77 69 312 69 vstem
          77 hmoveto
          450 310 hlineto
          -225 253 -225 -253 rlineto
          69 -240 rmoveto
          213 vlineto
          156 178 156 -178 rlineto
          -213 vlineto
          endchar
        </CharString>
        <CharString name="hungarumlaut">
          121 callsubr
          7 388 vstem
          7 -15 callsubr
          endchar
        </CharString>
        <CharString name="hyphen">
          58 callgsubr
        </CharString>
        <CharString name="i">
          48 callsubr
          93 124 hstem
          71 137 vstem
          71 599 74 callgsubr
        </CharString>
        <CharString name="i.loclTRK">
          48 callsubr
          88 130 98 callgsubr
          21 callgsubr
          -724 vmoveto
          -32 callgsubr
        </CharString>
        <CharString name="iacute">
          44 callgsubr
          71 591 -102 callsubr
          -79 132 callsubr
          endchar
        </CharString>
        <CharString name="iacute_j.loclNLD">
          72 callsubr
          85 132 132 callgsubr
          591 -102 callsubr
          214 -132 -102 callsubr
          -372 132 callsubr
          277 -708 -85 callsubr
        </CharString>
        <CharString name="ibreve">
          48 callsubr
          80 103 callgsubr
          -13 callgsubr
          hintmask 11011000
          141 586 -70 callsubr
          hintmask 11101000
          -46 callgsubr
          hintmask 11011000
          -91 callsubr
          -70 -586 rmoveto
          -32 callgsubr
        </CharString>
        <CharString name="icircumflex">
          48 callsubr
          82 135 -66 66 -13 callgsubr
          hintmask 11101000
          -27 -9 callsubr
          hintmask 11011000
          56 69 rlineto
          hintmask 11101000
          -102 callgsubr
          -8 132 callsubr
          endchar
        </CharString>
        <CharString name="idieresis">
          48 callsubr
          99 118 hstemhm
          -25 118 -22 137 -23 119 hintmask 00000000
          hintmask 11110100
          -25 -59 callgsubr
          hintmask 11101000
          -114 132 callsubr
          endchar
        </CharString>
        <CharString name="igrave">
          44 callgsubr
          107 -22 callgsubr
          72 -720 rmoveto
          -32 callgsubr
        </CharString>
        <CharString name="ij">
          72 callsubr
          93 124 hstem
          71 137 141 55 callgsubr
          278 -124 -2 callgsubr
          -278 132 callsubr
          277 -708 -85 callsubr
        </CharString>
        <CharString name="imacron">
          48 callsubr
          133 88 50 callgsubr
          -13 639 -44 callsubr
          84 -727 rmoveto
          -32 callgsubr
        </CharString>
        <CharString name="infinity">
          30 138 83 154 82 hstem
          47 94 429 94 vstem
          196 138 rmoveto
          68 45 38 56 45 hvcurveto
          -83 58 59 -11 41 hhcurveto
          78 74 60 104 97 -70 58 -82 -78 -42 -58 -32 -30 hvcurveto
          59 -43 -48 31 -67 hhcurveto
          -89 -68 -65 -96 -97 71 -61 78 hvcurveto
          13 83 rmoveto
          -39 -29 35 41 51 30 27 35 42 19 -18 -64 42 hvcurveto
          -35 -24 -34 -37 -42 hhcurveto
          299 hmoveto
          -33 -25 12 65 -47 hvcurveto
          57 45 21 20 34 hhcurveto
          41 26 -34 -45 -32 -22 -43 -40 hvcurveto
          endchar
        </CharString>
        <CharString name="integral">
          -409 -141 70 79 -21 803 69 hstem
          71 139 vstem
          23 -141 rmoveto
          101 86 17 95 149 -28 613 0 hvcurveto
          116 callsubr
          -150 27 -610 0 hvcurveto
          -44 -32 -14 -43 vhcurveto
          endchar
        </CharString>
        <CharString name="integralbt">
          -79 -250 69 hstem
          254 111 vstem
          177 -250 rmoveto
          101 87 18 94 80 -7 477 -7 440 hvcurveto
          -114 hlineto
          17 -983 rlineto
          -43 -34 -14 -43 vhcurveto
          endchar
        </CharString>
        <CharString name="integraltp">
          -79 790 69 hstem
          239 111 vstem
          253 -250 rmoveto
          114 hlineto
          -17 983 rlineto
          116 callsubr
          -80 7 -477 7 -440 hvcurveto
          endchar
        </CharString>
        <CharString name="intersection">
          39 21 -21 589 87 hstem
          94 92 348 92 vstem
          94 hmoveto
          92 410 hlineto
          105 78 74 97 96 77 -74 -105 vhcurveto
          -410 92 410 vlineto
          153 -119 113 -147 -147 -119 -113 -153 vhcurveto
          endchar
        </CharString>
        <CharString name="iogonek">
          -405 -190 69 -55 55 -34 -21 197 99 callsubr
          88 130 -13 callgsubr
          hintmask 00111110
          206 724 rmoveto
          -135 -130 135 hlineto
          2 -594 rmoveto
          -38 callgsubr
          -523 vlineto
          hintmask 10011110
          -26 -26 -24 -30 -49 89 callgsubr
          vhcurveto
          hintmask 00111110
          24 22 5 9 25 hvcurveto
          hintmask 01011110
          93 callsubr
        </CharString>
        <CharString name="itilde">
          48 callsubr
          95 10 callgsubr
          -29 70 30 137 29 70 112 callsubr
          -29 601 1 callgsubr
          hintmask 11101110
          -48 callgsubr
          100 callgsubr
          100 -601 rmoveto
          -32 callgsubr
        </CharString>
        <CharString name="j">
          -405 70 callsubr
          596 -20 93 124 hstem
          71 55 callgsubr
          -1 -905 -85 callsubr
        </CharString>
        <CharString name="jcircumflex">
          -405 70 callsubr
          596 -20 82 135 -66 66 -13 callgsubr
          hintmask 11101000
          -27 -9 callsubr
          hintmask 11011000
          56 69 rlineto
          hintmask 11101000
          -102 callgsubr
          -9 -905 -85 callsubr
        </CharString>
        <CharString name="k">
          21 99 callsubr
          217 -20 hstem
          71 137 vstem
          -22 callsubr
          406 -137 vlineto
          endchar
        </CharString>
        <CharString name="kcommaaccent">
          -138 98 61 99 callsubr
          217 -20 -13 callgsubr
          24 138 hintmask 11111000
          -22 callsubr
          406 -137 vlineto
          164 -953 rmoveto
          hintmask 11111100
          -61 callsubr
        </CharString>
        <CharString name="kgreenlandic">
          21 -21 526 -20 hstem
          71 137 vstem
          -22 callsubr
          209 -137 vlineto
          endchar
        </CharString>
        <CharString name="l">
          -405 21 64 callgsubr
          723 -137 hlineto
          endchar
        </CharString>
        <CharString name="lacute">
          -405 21 -21 723 -20 48 132 -13 callgsubr
          hintmask 00000000
          hintmask 11110000
          86 751 -102 callsubr
          -94 -883 rmoveto
          137 hlineto
          hintmask 11010000
          723 -137 vlineto
          endchar
        </CharString>
        <CharString name="lcaron">
          -298 21 -21 559 127 -127 164 -13 callgsubr
          53 138 hintmask 11011000
          126 callsubr
          hlineto
          hintmask 10111000
          723 -137 vlineto
          190 -281 rmoveto
          72 hlineto
          66 129 rlineto
          hintmask 11011000
          115 -138 -127 55 vlineto
          endchar
        </CharString>
        <CharString name="lcommaaccent">
          -405 -138 98 61 64 callgsubr
          723 -137 hlineto
          2 -953 rmoveto
          -61 callsubr
        </CharString>
        <CharString name="ldot">
          -315 21 -21 289 137 297 -20 75 callgsubr
          49 138 vstem
          126 callsubr
          723 -137 hlineto
          186 -434 rmoveto
          -33 callgsubr
          endchar
        </CharString>
        <CharString name="less">
          -99 2 520 hstem
          54 474 vstem
          528 2 57 callgsubr
          endchar
        </CharString>
        <CharString name="lessequal">
          -134 0 104 hstem
          38 474 vstem
          512 123 57 callgsubr
          1 -319 rmoveto
          113 callsubr
          endchar
        </CharString>
        <CharString name="lira">
          0 112 82 92 53 92 155 71 callsubr
          82 rlineto
          158 92 -158 53 158 92 -156 81 39 callgsubr
          -68 -75 -92 75 -53 -75 -92 75 -82 -62 vlineto
          endchar
        </CharString>
        <CharString name="logicalnot">
          -99 357 98 hstem
          444 98 vstem
          444 193 rmoveto
          98 262 -500 -98 402 hlineto
          endchar
        </CharString>
        <CharString name="longs">
          -405 104 callgsubr
          vstem
          84 hmoveto
          137 576 hlineto
          -50 callgsubr
          vlineto
          endchar
        </CharString>
        <CharString name="lozenge">
          -83 597 131 0 -20 hstemhm
          42 484 hintmask 01100000
          221 -133 rmoveto
          127 hlineto
          178 431 -178 430 rlineto
          -127 hlineto
          -179 -430 rlineto
          242 -300 rmoveto
          -116 300 rlineto
          hintmask 10100000
          116 299 116 -299 rlineto
          endchar
        </CharString>
        <CharString name="lslash">
          -405 21 64 callgsubr
          344 hlineto
          70 48 rlineto
          102 vlineto
          -70 -48 rlineto
          277 -137 -371 vlineto
          -71 -48 rlineto
          -102 vlineto
          71 48 rlineto
          endchar
        </CharString>
        <CharString name="m">
          206 49 callsubr
          -12 -20 -13 callgsubr
          170 137 169 137 hintmask 11011100
          122 callgsubr
          63 39 50 54 47 30 -25 -68 vhcurveto
          -324 137 304 vlineto
          63 38 50 54 47 30 -25 -68 vhcurveto
          -324 137 353 vlineto
          136 -71 49 -93 -74 -50 -38 -43 -32 vhcurveto
          -8 hlineto
          58 -27 -50 23 -61 hhcurveto
          -71 -48 -38 -43 -31 hvcurveto
          -7 hlineto
          hintmask 10111100
          -10 69 41 callsubr
        </CharString>
        <CharString name="macron">
          69 callsubr
        </CharString>
        <CharString name="minus">
          -99 204 104 hstem
          56 472 vstem
          56 204 123 callsubr
          endchar
        </CharString>
        <CharString name="minute">
          -443 506 180 hstem
          51 166 vstem
          51 506 64 callsubr
          endchar
        </CharString>
        <CharString name="multiply">
          -99 37 436 hstem
          75 435 vstem
          148 37 rmoveto
          144 145 144 -144 73 73 -144 143 145 145 -73 74 -145 -145 -145 144 -72 -73 144 -144 -144 -144 rlineto
          endchar
        </CharString>
        <CharString name="n">
          -72 21 92 callsubr
          hintmask 10111000
          122 callgsubr
          hintmask 11011000
          -89 callsubr
          -78 -52 -38 -43 -34 vhcurveto
          -7 hlineto
          hintmask 10111000
          -10 69 41 callsubr
        </CharString>
        <CharString name="nacute">
          26 callsubr
          -12 -20 85 132 13 callgsubr
          hintmask 10111100
          253 591 -102 callsubr
          -261 -723 rmoveto
          137 304 hlineto
          hintmask 11011100
          -89 callsubr
          -78 -52 -38 -43 -34 vhcurveto
          -7 hlineto
          hintmask 10111100
          -10 69 41 callsubr
        </CharString>
        <CharString name="nacute.loclPLK">
          26 callsubr
          -12 -20 85 131 13 callgsubr
          hintmask 10111100
          253 591 -39 callgsubr
          -211 -722 rmoveto
          137 304 hlineto
          hintmask 11011100
          -89 callsubr
          -78 -52 -38 -43 -34 vhcurveto
          -7 hlineto
          hintmask 10111100
          -10 69 41 callsubr
        </CharString>
        <CharString name="napostrophe">
          25 49 callsubr
          -96 84 33 127 hstemhm
          -3 138 33 4 callgsubr
          hintmask 10111110
          -3 442 -1 callgsubr
          116 -559 rmoveto
          137 304 hlineto
          hintmask 11011110
          -89 callsubr
          -78 -52 -38 -43 -34 vhcurveto
          -7 hlineto
          hintmask 10111110
          -10 69 41 callsubr
        </CharString>
        <CharString name="ncaron">
          26 callsubr
          -12 -20 82 135 13 callgsubr
          hintmask 10111100
          245 588 -101 callsubr
          -68 -723 rmoveto
          137 304 hlineto
          hintmask 11011100
          -89 callsubr
          -78 -52 -38 -43 -34 vhcurveto
          -7 hlineto
          hintmask 10111100
          -10 69 41 callsubr
        </CharString>
        <CharString name="ncommaaccent">
          -72 -138 98 61 38 callsubr
          -12 -20 -13 callgsubr
          29 138 31 137 hintmask 11011010
          122 callgsubr
          hintmask 11101010
          -89 callsubr
          -78 -52 -38 -43 -34 vhcurveto
          -7 hlineto
          hintmask 11011010
          -10 69 133 callsubr
          169 -756 rmoveto
          hintmask 11011110
          -61 callsubr
        </CharString>
        <CharString name="nine">
          -12 111 148 109 230 112 hstemhm
          30 141 -119 139 182 141 112 callsubr
          267 -12 rmoveto
          155 92 89 286 254 -95 81 -158 hvcurveto
          hintmask 11110100
          -133 -98 -87 -139 -130 62 -95 141 88 52 54 0 hvcurveto
          -124 -2 -10 -78 -89 hhcurveto
          hintmask 11101100
          -59 -22 38 66 hvcurveto
          -139 hlineto
          -122 64 -93 151 vhcurveto
          hintmask 11110100
          368 vmoveto
          -66 -30 46 70 65 30 49 66 66 32 -49 -65 -70 -32 -46 -66 hvcurveto
          endchar
        </CharString>
        <CharString name="notequal">
          -134 96 103 109 104 hstem
          38 472 vstem
          109 25 rmoveto
          86 hlineto
          38 71 rlineto
          277 103 -222 hlineto
          58 109 rlineto
          164 104 -109 hlineto
          39 72 rlineto
          -86 hlineto
          -39 -72 rlineto
          -277 -104 222 hlineto
          -58 -109 rlineto
          -164 -103 109 hlineto
          endchar
        </CharString>
        <CharString name="ntilde">
          26 callsubr
          -12 -20 95 85 -48 85 -13 callgsubr
          196 70 -68 137 hintmask 10110101
          138 125 callsubr
          hintmask 10101101
          -57 callgsubr
          hintmask 10110110
          -48 callsubr
          hintmask 10101110
          -68 callgsubr
          hintmask 10110110
          -48 callgsubr
          -47 callsubr
          hintmask 10110101
          -47 callgsubr
          -67 -601 rmoveto
          137 304 hlineto
          hintmask 11010101
          -89 callsubr
          -78 -52 -38 -43 -34 vhcurveto
          -7 hlineto
          hintmask 10110101
          -10 69 41 callsubr
        </CharString>
        <CharString name="numbersign">
          9 -21 175 108 123 108 196 -20 hstem
          9 535 vstem
          37 -12 rmoveto
          104 hlineto
          35 175 rlineto
          120 hlineto
          -35 -175 rlineto
          104 hlineto
          35 175 rlineto
          98 108 -76 hlineto
          25 123 rlineto
          97 108 -75 120 callgsubr
          -120 120 callgsubr
          -86 -108 64 hlineto
          -25 -123 rlineto
          -85 -108 63 hlineto
          126 108 rmoveto
          25 123 rlineto
          120 hlineto
          -25 -123 rlineto
          endchar
        </CharString>
        <CharString name="o">
          -67 callgsubr
          -9 callgsubr
          305 -12 -103 callsubr
        </CharString>
        <CharString name="oacute">
          22 callgsubr
          -27 -85 callgsubr
        </CharString>
        <CharString name="oacute.loclPLK">
          19 callgsubr
          131 -9 callgsubr
          253 591 -39 callgsubr
          23 -734 -103 callsubr
        </CharString>
        <CharString name="obreve">
          -67 callgsubr
          88 callsubr
          13 callsubr
          hintmask 11011100
          305 586 -70 callsubr
          hintmask 11101100
          -46 callgsubr
          hintmask 11011100
          -91 callsubr
          -598 vmoveto
          -105 callgsubr
          endchar
        </CharString>
        <CharString name="ocircumflex">
          -67 callgsubr
          50 135 -66 66 13 callsubr
          hintmask 11101100
          139 -9 callsubr
          hintmask 11011100
          56 69 rlineto
          hintmask 11101100
          -91 callgsubr
          endchar
        </CharString>
        <CharString name="odieresis">
          -67 callgsubr
          67 118 hstemhm
          38 141 -37 -20 callsubr
          -39 141 hintmask 11101100
          142 -59 callgsubr
          hintmask 11110010
          -47 -85 callgsubr
        </CharString>
        <CharString name="oe">
          261 -12 106 -106 -23 callsubr
          104 112 -107 107 hstemhm
          38 141 245 8 callsubr
          hintmask 01110111
          301 -12 rmoveto
          84 64 23 46 44 hvcurveto
          -46 42 61 -23 80 hhcurveto
          133 100 61 137 hvcurveto
          hintmask 10110111
          -135 hlineto
          -61 -40 -31 -56 -84 -29 47 90 -2 vhcurveto
          346 32 hlineto
          189 -79 86 -154 -80 -61 -23 -47 -42 vhcurveto
          47 -44 -64 23 -84 hhcurveto
          -175 -88 -86 -189 hvcurveto
          hintmask 01110111
          -189 88 -86 175 vhcurveto
          264 334 rmoveto
          hintmask 01101111
          72 8 33 37 70 hhcurveto
          55 36 -31 -78 hvcurveto
          -466 -222 rmoveto
          -88 -34 54 101 hvcurveto
          16 vlineto
          hintmask 01110111
          101 34 54 88 89 34 -54 -101 vhcurveto
          -16 vlineto
          hintmask 01101111
          -101 -34 -54 -89 vhcurveto
          endchar
        </CharString>
        <CharString name="ogonek">
          -350 -182 69 -69 194 hstemhm
          73 105 hintmask 10100000
          179 14 callgsubr
        </CharString>
        <CharString name="ograve">
          -31 callsubr
          253 -22 callgsubr
          160 -732 -103 callsubr
        </CharString>
        <CharString name="ohorn">
          -67 callgsubr
          11 137 13 callsubr
          -61 158 hintmask 10110100
          512 686 -29 callgsubr
          hintmask 11110100
          -60 callsubr
          hintmask 11111000
          1 callsubr
          hintmask 10110100
          30 callsubr
          hintmask 11111000
          -56 callgsubr
          endchar
        </CharString>
        <CharString name="ohungarumlaut">
          -31 callsubr
          166 -15 callsubr
          -115 -85 callgsubr
        </CharString>
        <CharString name="omacron">
          -67 callgsubr
          73 88 -9 callgsubr
          153 611 -44 callsubr
          152 -711 -103 callsubr
        </CharString>
        <CharString name="one">
          0 112 408 85 81 -20 hstem
          246 137 vstem
          85 hmoveto
          445 112 -147 574 -71 hlineto
          -69 -40 -99 -35 -60 -6 rrcurveto
          -85 162 -408 -161 vlineto
          endchar
        </CharString>
        <CharString name="oneeighth">
          83 callgsubr
          -33 36 callgsubr
          320 95 callgsubr
          hintmask 1101101100000000
          110 -12 -21 callgsubr
          -610 81 callgsubr
          hintmask 1101110110010000
          5 callsubr
          616 -416 46 callgsubr
          hintmask 1110101101100000
          -4 callgsubr
          hintmask 1101101110000000
          114 callsubr
          hintmask 1101110110010000
          -59 38 -49 93 vhcurveto
          hintmask 1110101101100000
          -4 callsubr
          hintmask 1101101110010000
          -14 callgsubr
        </CharString>
        <CharString name="onehalf">
          151 0 75 -66 -21 312 69 -40 36 callgsubr
          316 122 callsubr
          hintmask 0000000000000000
          hintmask 0101101100000000
          100 -12 -21 callgsubr
          -600 81 callgsubr
          hintmask 1001110110000000
          5 callsubr
          481 -404 56 callgsubr
          hintmask 1010101101100000
          48 32 63 43 78 vvcurveto
          29 -11 80 -109 -70 -61 -30 -72 -8 1 -11 2 -9 vhcurveto
          80 18 hlineto
          31 16 12 29 28 13 -19 -17 -14 -3 -16 -9 -12 vhcurveto
          hintmask 1001101110000000
          63 callgsubr
          endchar
        </CharString>
        <CharString name="onequarter">
          151 9 -21 83 69 189 36 callgsubr
          449 83 hintmask 11110111
          100 -12 -21 callgsubr
          -600 81 callgsubr
          hintmask 11111011
          5 callsubr
          614 -403 14 callsubr
        </CharString>
        <CharString name="ordfeminine">
          -313 404 65 82 56 66 64 hstemhm
          30 85 -69 81 97 82 hintmask 11110100
          328 471 rmoveto
          -11 -11 6 16 hvcurveto
          140 vlineto
          66 -41 38 -89 vhcurveto
          hintmask 11101100
          -78 -52 -35 -54 -5 0 -4 1 -4 hvcurveto
          80 10 hlineto
          12 11 16 40 38 8 -20 -24 vhcurveto
          -22 vlineto
          hintmask 11110100
          -114 -80 -27 -86 -78 64 -12 35 52 26 17 24 21 hvcurveto
          4 hlineto
          -26 8 25 -15 32 hhcurveto
          24 16 5 4 8 hvcurveto
          58 vlineto
          -121 71 rmoveto
          -40 -19 -33 -50 -28 -12 15 18 40 52 9 57 vhcurveto
          endchar
        </CharString>
        <CharString name="ordmasculine">
          -318 404 68 197 68 hstem
          21 85 154 86 vstem
          183 404 rmoveto
          109 54 52 115 114 -54 52 -109 -108 -54 -52 -114 -115 54 -52 108 hvcurveto
          68 vmoveto
          -55 -22 33 61 hvcurveto
          9 vlineto
          61 22 33 55 56 21 -33 -61 vhcurveto
          -9 vlineto
          -61 -21 -33 -56 vhcurveto
          endchar
        </CharString>
        <CharString name="orthogonal">
          296 0 89 hstem
          177 89 vstem
          177 hmoveto
          625 89 -536 536 -89 hlineto
          endchar
        </CharString>
        <CharString name="oslash">
          -67 callgsubr
          -9 callgsubr
          45 -49 -53 callsubr
        </CharString>
        <CharString name="oslashacute">
          22 callgsubr
          -287 -772 -53 callsubr
        </CharString>
        <CharString name="otilde">
          -67 callgsubr
          63 10 callgsubr
          38 141 -41 60 callsubr
          -42 141 hintmask 00000000
          hintmask 11100101
          138 601 rmoveto
          50 callsubr
          hintmask 11100110
          -48 callgsubr
          -47 callsubr
          hintmask 11100101
          -47 callgsubr
          hintmask 11101001
          167 -613 -103 callsubr
        </CharString>
        <CharString name="p">
          -72 -152 -21 161 119 -46 46 312 107 -107 131 callgsubr
          hintmask 11001110
          71 -173 rmoveto
          137 hlineto
          hintmask 10101110
          234 6 vlineto
          hintmask 11001110
          102 callgsubr
          -81 85 -129 -67 -59 -27 -54 -34 hvcurveto
          -7 hlineto
          hintmask 11010110
          -9 69 133 callsubr
          249 -419 rmoveto
          -78 -34 54 95 hvcurveto
          16 vlineto
          hintmask 11001110
          95 34 52 78 84 29 -52 -95 vhcurveto
          -18 vlineto
          hintmask 11010110
          -95 -29 -52 -84 vhcurveto
          endchar
        </CharString>
        <CharString name="paragraph">
          625 61 hstem
          233 84 66 84 vstem
          233 -168 rmoveto
          84 793 66 -793 84 793 61 61 -266 hlineto
          -136 -108 -58 -160 -145 105 -70 110 hvcurveto
          endchar
        </CharString>
        <CharString name="parenleft">
          -350 736 -20 hstem
          51 123 vstem
          217 -157 rmoveto
          88 hlineto
          -74 122 -57 169 157 vvcurveto
          156 57 167 74 122 vhcurveto
          -88 hlineto
          -107 -123 -59 -160 -165 vvcurveto
          -164 59 -158 107 -123 vhcurveto
          endchar
        </CharString>
        <CharString name="parenright">
          -350 736 -20 hstem
          159 123 vstem
          28 -157 rmoveto
          88 hlineto
          107 123 59 158 164 vvcurveto
          165 -59 160 -107 123 vhcurveto
          -88 hlineto
          74 -122 57 -167 -156 vvcurveto
          -157 -57 -169 -74 -122 vhcurveto
          endchar
        </CharString>
        <CharString name="partialdiff">
          -189 -12 102 262 97 187 99 hstem
          35 125 176 119 vstem
          216 -12 rmoveto
          153 86 148 247 250 -116 102 -118 -56 -41 -13 -16 -31 hvcurveto
          -104 vlineto
          18 25 35 16 48 hhcurveto
          77 58 -96 -122 -9 0 -19 -1 -6 hvcurveto
          -4 hlineto
          24 -12 -37 41 -58 hhcurveto
          -98 -91 -93 -152 -116 61 -100 120 hvcurveto
          7 102 rmoveto
          -40 -23 45 66 82 38 69 49 44 28 -40 -33 9 hvcurveto
          -97 -7 -39 -92 -59 hhcurveto
          endchar
        </CharString>
        <CharString name="percent">
          206 -12 81 -48 -21 268 81 -12 81 199 81 -12 -20 hstemhm
          46 104 126 104 130 104 126 104 hintmask 1001101111000000
          213 337 68 callsubr
          hintmask 0101011111000000
          -71 -337 rmoveto
          102 hlineto
          507 686 rlineto
          -104 hlineto
          -434 -268 rmoveto
          -52 -11 37 55 hvcurveto
          hintmask 1001101111000000
          15 vlineto
          55 11 37 52 51 12 -37 -55 vhcurveto
          -15 vlineto
          hintmask 0101011111000000
          -55 -12 -37 -51 vhcurveto
          hintmask 1010101111000000
          464 -430 68 callsubr
          81 vmoveto
          -51 -12 38 54 hvcurveto
          15 vlineto
          54 12 38 51 52 11 -38 -54 vhcurveto
          -15 vlineto
          -54 -11 -38 -52 vhcurveto
          endchar
        </CharString>
        <CharString name="period">
          -405 0 137 hstem
          70 138 vstem
          70 hmoveto
          -33 callgsubr
          endchar
        </CharString>
        <CharString name="periodcentered">
          -350 289 137 hstem
          96 138 vstem
          96 289 rmoveto
          -33 callgsubr
          endchar
        </CharString>
        <CharString name="perthousand">
          317 -11 81 -49 -21 269 81 -13 81 199 81 -12 -20 hstemhm
          18 104 78 104 72 104 78 104 32 104 78 104 hintmask 0000000000000000
          hintmask 0101101100000000
          161 337 rmoveto
          16 callgsubr
          -54 -337 rmoveto
          88 hlineto
          hintmask 0001011100000000
          378 686 rlineto
          -90 hlineto
          -322 -268 rmoveto
          -32 -7 37 55 hvcurveto
          hintmask 0001101100000000
          63 callsubr
          hintmask 0001011100000000
          -55 -7 -37 -32 vhcurveto
          hintmask 1010000011110000
          358 -429 rmoveto
          16 callgsubr
          318 hmoveto
          16 callgsubr
          -318 81 rmoveto
          -32 -7 37 55 hvcurveto
          63 callsubr
          -55 -7 -37 -32 vhcurveto
          318 hmoveto
          -32 -7 37 55 hvcurveto
          63 callsubr
          -55 -7 -37 -32 vhcurveto
          endchar
        </CharString>
        <CharString name="peseta">
          411 -12 106 -106 112 -112 179 -146 -21 236 123 13 166 -124 112 -94 106 25 123 hstemhm
          67 143 287 132 43 124 -116 132 111 124 -119 132 hintmask 0010101011101010
          615 -12 rmoveto
          49 31 16 0 hvcurveto
          62 vlineto
          -49 30 58 -29 81 hhcurveto
          112 84 42 128 hvcurveto
          hintmask 0010100111101010
          208 -248 -68 92 vvcurveto
          27 21 15 31 vhcurveto
          hintmask 0010110011101100
          35 24 -19 -40 hvcurveto
          -1 123 vlineto
          1 10 0 7 6 vvcurveto
          hintmask 0010100111101100
          90 -78 53 -101 vhcurveto
          hintmask 0001101011101010
          -29 -27 -4 -8 -25 hvcurveto
          -158 148 -106 hlineto
          -23 -148 rlineto
          -28 hlineto
          100 -21 -74 60 -130 hhcurveto
          -180 -686 143 236 27 hlineto
          143 78 67 111 16 hvcurveto
          23 -285 hlineto
          hintmask 0010101011101010
          -70 27 -71 91 vhcurveto
          -405 371 rmoveto
          204 29 88 callgsubr
          hintmask 1000101011110010
          629 -265 rmoveto
          -34 -36 16 50 -2 hvcurveto
          7 vlineto
          hintmask 0010101011110010
          -123 hlineto
          hintmask 0100101011110010
          -1 -6 0 -3 -3 vvcurveto
          -20 3 -18 5 -17 vhcurveto
          -8 hlineto
          99 callgsubr
          271 vlineto
          hintmask 1000101011101010
          54 hlineto
          -2 -11 -1 -12 -13 -203 248 67 -101 vvcurveto
          hintmask 1000101011110010
          -37 -33 -10 -27 vhcurveto
          endchar
        </CharString>
        <CharString name="pi">
          83 97 callgsubr
          hstem
          184 136 166 137 vstem
          103 hmoveto
          136 hlineto
          40 81 32 216 9 117 rrcurveto
          166 -267 hlineto
          -80 8 -51 11 -16 vhcurveto
          134 hlineto
          -10 30 -6 44 82 vvcurveto
          258 104 vlineto
          10 112 rlineto
          -503 hlineto
          -108 -60 -11 -19 -33 hvcurveto
          15 -95 rlineto
          9 29 29 4 78 hhcurveto
          -4 -117 -35 -199 -42 -98 rrcurveto
          endchar
        </CharString>
        <CharString name="plus">
          -99 21 -21 203 104 hstem
          240 103 vstem
          240 hmoveto
          76 callsubr
          endchar
        </CharString>
        <CharString name="plusminus">
          -134 0 104 248 104 hstem
          223 103 vstem
          223 149 rmoveto
          76 callsubr
          -184 -352 123 callsubr
          endchar
        </CharString>
        <CharString name="product">
          140 598 125 hstem
          130 145 272 144 vstem
          130 -128 rmoveto
          145 726 272 -726 144 726 91 125 -741 -125 89 hlineto
          endchar
        </CharString>
        <CharString name="q">
          -72 -152 -21 161 119 312 107 -107 119 66 callgsubr
          hintmask 11011100
          403 -173 rmoveto
          137 hlineto
          hintmask 11101100
          699 -117 vlineto
          hintmask 11011100
          -9 -69 rlineto
          -7 hlineto
          54 -34 -59 27 -67 hhcurveto
          -129 -81 -85 -191 -189 87 -85 116 71 55 26 47 31 hvcurveto
          6 hlineto
          -112 46 rmoveto
          -84 -29 52 95 hvcurveto
          18 vlineto
          73 callsubr
          -52 -95 vhcurveto
          -16 vlineto
          -95 -34 -54 -78 vhcurveto
          endchar
        </CharString>
        <CharString name="question">
          -72 0 137 440 121 hstemhm
          57 142 30 138 -132 125 35 149 112 callsubr
          235 197 rmoveto
          125 28 hlineto
          123 184 -5 177 vvcurveto
          117 -90 61 -146 -168 -83 -92 -112 -19 4 -16 0 vhcurveto
          139 hlineto
          0 -1 11 16 vvcurveto
          32 13 59 86 92 5 -52 -23 vhcurveto
          -97 -160 9 -174 vvcurveto
          hintmask 11010000
          -6 -240 rmoveto
          -33 callgsubr
          endchar
        </CharString>
        <CharString name="questiondown">
          -72 -172 121 440 137 hstemhm
          74 149 28 138 -131 125 36 142 hintmask 11010000
          251 389 rmoveto
          -33 callgsubr
          hintmask 11101100
          59 -698 rmoveto
          168 83 92 112 19 -4 16 0 hvcurveto
          -139 hlineto
          0 1 -11 -16 vvcurveto
          -32 -13 -59 -86 -92 -5 52 23 vhcurveto
          97 160 -9 174 vvcurveto
          43 -125 -28 vlineto
          -123 -184 5 -177 vvcurveto
          -117 90 -61 146 vhcurveto
          endchar
        </CharString>
        <CharString name="quotedbl">
          -209 407 279 hstem
          53 149 71 149 vstem
          75 407 55 callsubr
          242 -132 55 callsubr
          endchar
        </CharString>
        <CharString name="quotedblbase">
          -183 0 137 hstem
          70 138 84 138 vstem
          70 -156 rmoveto
          -41 callgsubr
          167 -156 rmoveto
          -41 callgsubr
          endchar
        </CharString>
        <CharString name="quotedblleft">
          -183 393 137 156 -20 hstem
          70 138 84 138 vstem
          70 393 32 callsubr
          222 -125 32 callsubr
          endchar
        </CharString>
        <CharString name="quotedblright">
          -183 107 callsubr
          84 138 vstem
          70 393 rmoveto
          -41 callgsubr
          167 -156 rmoveto
          -41 callgsubr
          endchar
        </CharString>
        <CharString name="quoteleft">
          -405 393 137 156 -20 hstem
          70 138 vstem
          70 393 32 callsubr
          endchar
        </CharString>
        <CharString name="quotereversed">
          -405 107 callsubr
          vstem
          136 393 rmoveto
          72 hlineto
          -55 156 rlineto
          55 137 -138 -125 hlineto
          endchar
        </CharString>
        <CharString name="quoteright">
          -405 107 callsubr
          vstem
          70 393 rmoveto
          -41 callgsubr
          endchar
        </CharString>
        <CharString name="quotesinglbase">
          -405 0 137 hstem
          70 138 vstem
          70 -156 rmoveto
          -41 callgsubr
          endchar
        </CharString>
        <CharString name="quotesingle">
          -445 407 279 hstemhm
          49 149 hintmask 00000000
          hintmask 11000000
          71 407 55 callsubr
          endchar
        </CharString>
        <CharString name="r">
          -294 21 104 callsubr
          hintmask 10011000
          126 callsubr
          254 hlineto
          hintmask 11001000
          96 36 51 91 vhcurveto
          38 hlineto
          hintmask 10011000
          128 vlineto
          hintmask 11001000
          -18 callsubr
          hintmask 10101000
          -11 85 41 callsubr
        </CharString>
        <CharString name="racute">
          -294 21 12 callsubr
          82 132 -13 callgsubr
          hintmask 10011100
          142 591 -102 callsubr
          -150 -723 -40 callsubr
        </CharString>
        <CharString name="radical">
          -134 -148 1005 hstem
          30 518 vstem
          276 -148 rmoveto
          110 hlineto
          162 1005 rlineto
          -79 hlineto
          -130 -835 -11 31 -12 30 -11 31 rlinecurve
          -103 281 -172 -72 27 -80 60 23 rlineto
          endchar
        </CharString>
        <CharString name="rcaron">
          -294 21 12 callsubr
          79 135 -13 callgsubr
          hintmask 10011100
          134 588 -101 callsubr
          43 -723 -40 callsubr
        </CharString>
        <CharString name="rcommaaccent">
          -294 -138 98 61 -13 callsubr
          3 -756 rmoveto
          -61 callsubr
        </CharString>
        <CharString name="registered">
          54 -12 62 244 67 124 66 85 62 hstem
          13 64 143 78 164 79 118 -32 callsubr
          -148 88 rmoveto
          78 156 99 hlineto
          78 -156 rlineto
          84 hlineto
          -87 170 rlineto
          47 21 22 42 54 vvcurveto
          75 -43 51 -86 vhcurveto
          -192 hlineto
          78 -190 rmoveto
          124 104 vlineto
          38 22 -21 -39 -41 -25 -23 -35 hvcurveto
          endchar
        </CharString>
        <CharString name="revlogicalnot">
          -99 357 98 hstem
          42 98 vstem
          42 193 rmoveto
          98 164 402 98 -500 hlineto
          endchar
        </CharString>
        <CharString name="ring">
          -350 556 57 88 57 hstem
          66 57 88 57 vstem
          167 556 -78 callgsubr
          endchar
        </CharString>
        <CharString name="s">
          -12 54 callgsubr
          179 134 -121 137 hintmask 00000000
          hintmask 11110010
          281 -12 32 callgsubr
          hintmask 11101010
          -27 callgsubr
          hintmask 11101100
          -75 callgsubr
          hintmask 11101010
          -26 callgsubr
          hintmask 11110010
          -55 callgsubr
          endchar
        </CharString>
        <CharString name="sacute">
          -12 -49 callgsubr
          53 132 -11 callsubr
          hintmask 11110101
          225 591 -102 callsubr
          hintmask 11111001
          -23 -735 -77 callgsubr
        </CharString>
        <CharString name="sacute.loclPLK">
          -12 -49 callgsubr
          53 131 -11 callsubr
          hintmask 11110101
          225 591 -39 callgsubr
          hintmask 11111001
          27 -734 -77 callgsubr
        </CharString>
        <CharString name="scaron">
          -12 -49 callgsubr
          50 135 -11 callsubr
          hintmask 11110101
          217 588 -101 callsubr
          hintmask 11111001
          170 -735 -77 callgsubr
        </CharString>
        <CharString name="scedilla">
          68 callgsubr
          43 -21 23 -21 223.05 113.36 104.59 106 hstemhm
          46 134 -124 137 34 46 callsubr
          -40 134 -121 137 hintmask 1000111010001000
          522 158 rmoveto
          -27 callgsubr
          hintmask 1000111010010000
          -75 callgsubr
          hintmask 1010111010001000
          -26 callgsubr
          hintmask 1010111100001000
          -51 -53 16 50 -2 hvcurveto
          7 -133 vlineto
          0 -1 -7 -5 vvcurveto
          hintmask 1000111100001000
          -88 67 -63 119 -13 vhcurveto
          hintmask 1010111011001000
          -10 -68 rlineto
          hintmask 1010111010100000
          -24 callsubr
          hintmask 0100111010001000
          -49 vlineto
          hintmask 1010111010100000
          -10 callsubr
          hintmask 1001011011001000
          3 22 rlineto
          hintmask 1000111010001000
          120 7 85 45 117 vvcurveto
          endchar
        </CharString>
        <CharString name="scircumflex">
          -12 -49 callgsubr
          50 135 -66 66 -11 callsubr
          hintmask 1111001010000000
          41 callgsubr
          hintmask 1110101010000000
          56 69 rlineto
          hintmask 1111010010000000
          -102 callgsubr
          64 -735 32 callgsubr
          hintmask 1111001010000000
          -27 callgsubr
          hintmask 1111001100000000
          -75 callgsubr
          hintmask 1111001010000000
          -26 callgsubr
          hintmask 1111010010000000
          -55 callgsubr
          endchar
        </CharString>
        <CharString name="scommaaccent">
          -138 98 28 54 callgsubr
          16 138 25 134 -121 137 hintmask 0000000000000000
          hintmask 0111101010000000
          281 -12 32 callgsubr
          hintmask 0111011010000000
          -27 callgsubr
          hintmask 0111011100000000
          -75 callgsubr
          hintmask 0111011010000000
          -26 callgsubr
          hintmask 0111101010000000
          -55 callgsubr
          -69 -218 rmoveto
          hintmask 1111001010000000
          -61 callsubr
        </CharString>
        <CharString name="second">
          -204 506 180 hstem
          51 367 vstem
          51 506 64 callsubr
          166 -180 64 callsubr
          endchar
        </CharString>
        <CharString name="section">
          -182 106 -106 166 548 166 -108 108 hstemhm
          41 134 -117 139 162 139 -117 134 hintmask 00000000
          hintmask 10010110
          272 -182 rmoveto
          129 97 53 107 58 -27 41 -39 30 hvcurveto
          hintmask 10010101
          53 34 30 48 51 193 -318 6 97 vvcurveto
          33 33 21 49 vhcurveto
          hintmask 10011010
          47 32 -19 -36 hvcurveto
          -3 vlineto
          hintmask 10101010
          139 hlineto
          1 1 11 11 vvcurveto
          hintmask 10010110
          90 -94 53 -120 -129 -97 -53 -107 -59 27 -41 39 -29 vhcurveto
          hintmask 10011010
          -53 -35 -30 -48 -50 -193 318 -6 -97 vvcurveto
          -34 -33 -22 -49 vhcurveto
          hintmask 10010101
          -48 -31 18 40 hvcurveto
          2 vlineto
          hintmask 01010101
          -139 hlineto
          -1 -1 -11 -11 vvcurveto
          hintmask 10010110
          -90 94 -53 120 vhcurveto
          hintmask 10011001
          75 338 rmoveto
          -85 34 -87 33 80 vvcurveto
          20 15 20 18 16 vhcurveto
          85 -38 88 -28 -80 vvcurveto
          -21 -14 -20 -20 -16 vhcurveto
          endchar
        </CharString>
        <CharString name="semicolon">
          53 callsubr
          -682 vmoveto
          -41 callgsubr
          endchar
        </CharString>
        <CharString name="seven">
          21 -21 564 122 hstem
          134 147 vstem
          134 hmoveto
          148 hlineto
          -1 24 0 8 19 vvcurveto
          210 90 callgsubr
          110 136 vhcurveto
          91 -493 -122 337 vlineto
          -123 -139 -115 -205 -220 vvcurveto
          endchar
        </CharString>
        <CharString name="seveneighths">
          83 callgsubr
          250 74 12 -20 hstemhm
          62 263 -212 86 315 95 callgsubr
          hintmask 1111001100100000
          83 -12 rmoveto
          88 hlineto
          hintmask 1110101100100000
          546 710 rlineto
          -88 hlineto
          -516 -374 rmoveto
          87 hlineto
          -1 13 0 10 10 vvcurveto
          hintmask 1111001100100000
          103 70 102 56 68 vhcurveto
          hintmask 1111010100100000
          56 -263 -74 165 vlineto
          hintmask 1110101100100000
          -74 -86 -40 -100 -102 vvcurveto
          hintmask 1111001100100000
          532 -336 46 callgsubr
          hintmask 1111001011000000
          -4 callgsubr
          hintmask 1111001100100000
          114 callsubr
          -59 38 -49 93 vhcurveto
          hintmask 1111001011000000
          -4 callsubr
          hintmask 1111001100100000
          -14 callgsubr
        </CharString>
        <CharString name="six">
          -12 112 230 109 148 111 hstemhm
          42 141 182 139 -119 141 hintmask 11110100
          295 -12 rmoveto
          133 98 87 139 130 -62 95 -141 -88 -52 -54 0 hvcurveto
          124 2 10 78 89 hhcurveto
          hintmask 11111000
          59 22 -38 -66 hvcurveto
          139 hlineto
          122 -64 93 -151 -155 -92 -89 -286 vhcurveto
          hintmask 11110100
          -254 95 -81 158 vhcurveto
          -6 112 rmoveto
          -66 -32 49 65 70 32 46 66 66 30 -46 -70 -65 -30 -49 -66 hvcurveto
          endchar
        </CharString>
        <CharString name="slash">
          130 callgsubr
          1 -49 rmoveto
          96 hlineto
          180 784 rlineto
          -95 hlineto
          endchar
        </CharString>
        <CharString name="space">
          -405 endchar
        </CharString>
        <CharString name="sterling">
          0 112 170 112 192 71 callsubr
          170 rlineto
          158 112 -156 118 39 callgsubr
          -105 -75 -112 75 -170 -62 vlineto
          endchar
        </CharString>
        <CharString name="summation">
          30 -128 125 601 125 hstem
          59 631 vstem
          59 -128 rmoveto
          631 125 -447 4 hlineto
          277 314 -254 279 rlineto
          4 405 125 -602 -114 vlineto
          282 -310 -292 -327 rlineto
          endchar
        </CharString>
        <CharString name="t">
          -350 -12 112 314 112 hstem
          74 137 vstem
          -45 callgsubr
          endchar
        </CharString>
        <CharString name="tbar">
          -350 -12 112 154 71 89 112 hstem
          74 137 vstem
          212 -12 93 callgsubr
          111 91 71 -91 89 91 112 -91 148 -111 vlineto
          -23 -148 rlineto
          -66 -112 63 -89 -63 -71 63 -125 hlineto
          126 callgsubr
          endchar
        </CharString>
        <CharString name="tcaron">
          -204 -12 112 314 112 -84 84 33 127 hstemhm
          74 137 138 138 hintmask 00000000
          hintmask 10111100
          349 442 -1 callgsubr
          -192 -571 93 callgsubr
          hintmask 11011100
          271 91 112 -91 148 -111 vlineto
          -23 -148 rlineto
          -66 -112 63 -285 hlineto
          hintmask 10111100
          126 callgsubr
          endchar
        </CharString>
        <CharString name="thorn">
          -72 -152 -21 161 119 -46 46 312 131 callgsubr
          hintmask 11011100
          71 -173 rmoveto
          137 hlineto
          hintmask 10111100
          234 6 vlineto
          hintmask 11011100
          102 callgsubr
          -82 85 -121 -71 -55 -26 -47 -31 hvcurveto
          -6 272 -137 hlineto
          249 -630 rmoveto
          -78 -34 54 95 hvcurveto
          16 vlineto
          95 34 52 94 callgsubr
        </CharString>
        <CharString name="three">
          -12 112 193 112 77 216 -112 112 hstemhm
          34 139 -125 139 30 180 -33 141 -127 141 hintmask 0000000000000000
          hintmask 1101100010000000
          280 -12 rmoveto
          140 99 74 122 91 -52 55 -70 22 hvcurveto
          4 vlineto
          hintmask 1101010100000000
          61 29 47 44 81 vvcurveto
          122 -93 66 -137 -132 -95 -74 -114 vhcurveto
          hintmask 1110010010000000
          -28 139 vlineto
          hintmask 1101010100000000
          19 vlineto
          57 35 28 56 52 34 -25 -60 -65 -41 -31 -52 vhcurveto
          hintmask 1101011000000000
          -54 -112 51 hlineto
          hintmask 1101100010000000
          58 52 -19 -80 -65 -41 -29 -59 -68 -37 32 59 hvcurveto
          21 -139 -18 vlineto
          -125 87 -81 159 vhcurveto
          endchar
        </CharString>
        <CharString name="threeeighths">
          83 callgsubr
          -37 68 87 69 35 114 -68 68 hstemhm
          37 47 callsubr
          235 95 callgsubr
          hintmask 0000000000000000
          hintmask 1101101100011001
          168 325 rmoveto
          75 53 39 66 hvcurveto
          hintmask 1101101001001001
          66 callsubr
          hintmask 1101101010101001
          -1 callsubr
          hintmask 1101110010011001
          -12 83 8 vlineto
          hintmask 1101101010101001
          7 callgsubr
          hintmask 1101101001001001
          -34 -69 hlineto
          hintmask 1101101100011001
          -12 callsubr
          -83 -7 vlineto
          -67 46 -43 85 vhcurveto
          -68 -337 -21 callgsubr
          16 -710 46 callgsubr
          hintmask 1110101010010110
          -4 callgsubr
          hintmask 1101101010011001
          114 callsubr
          hintmask 1101101100011001
          -59 38 -49 93 vhcurveto
          hintmask 1110101010010110
          -4 callsubr
          hintmask 1101101010011001
          -14 callgsubr
        </CharString>
        <CharString name="threequarters">
          151 9 -21 83 69 185 68 87 69 35 114 -68 68 hstemhm
          38 47 callsubr
          363 83 hintmask 1111011000110000
          169 325 rmoveto
          75 53 39 66 hvcurveto
          hintmask 1111011010010000
          66 callsubr
          hintmask 1111010101010000
          -1 callsubr
          hintmask 1111100100110000
          -12 83 8 vlineto
          hintmask 1111010101010000
          7 callgsubr
          hintmask 1111011010010000
          -34 -69 hlineto
          hintmask 1111011000110000
          -12 callsubr
          -83 -7 vlineto
          -67 46 -43 85 vhcurveto
          -69 -337 -21 callgsubr
          14 -697 14 callsubr
        </CharString>
        <CharString name="tilde">
          -350 601 10 callgsubr
          -1 60 callsubr
          hintmask 10110000
          -1 125 callsubr
          hintmask 01110000
          -57 callgsubr
          hintmask 10110000
          -48 callsubr
          hintmask 01110000
          -68 callgsubr
          hintmask 10110000
          -48 callgsubr
          -47 callsubr
          -47 callgsubr
          endchar
        </CharString>
        <CharString name="trademark">
          317 279 104 230 73 hstem
          217 77 180 71 279 77 vstem
          217 280 rmoveto
          77 333 138 73 -354 -73 139 hlineto
          257 -334 rmoveto
          71 301 2 hlineto
          101 -301 rlineto
          72 hlineto
          98 294 rlineto
          6 -294 77 407 -112 hlineto
          -100 -303 rlineto
          -4 hlineto
          -97 303 rlineto
          -114 hlineto
          endchar
        </CharString>
        <CharString name="two">
          0 122 464 112 hstem
          50 140 190 139 vstem
          43 hmoveto
          480 122 -311 hlineto
          6 10 8 9 11 10 rrcurveto
          80 73 202 79 194 vvcurveto
          51 -19 150 -205 -131 -114 -61 -147 -24 4 -16 0 vhcurveto
          136 41 hlineto
          66 36 29 63 63 28 -43 -38 -32 -9 -31 -16 -25 vhcurveto
          -81 -125 -231 -63 -193 vvcurveto
          endchar
        </CharString>
        <CharString name="u">
          -72 -12 118 callgsubr
          198 137 hintmask 00000000
          hintmask 10111000
          242 -12 -62 callgsubr
          hintmask 01111000
          -82 callgsubr
          hintmask 10111000
          -100 callgsubr
          vhcurveto
          endchar
        </CharString>
        <CharString name="uacute">
          -19 callgsubr
          251 591 -102 callsubr
          hintmask 10111100
          -88 -735 -87 callsubr
        </CharString>
        <CharString name="ubreve">
          -50 callsubr
          80 103 callgsubr
          -3 callsubr
          hintmask 01101110
          303 586 -70 callsubr
          hintmask 01110110
          -46 callgsubr
          hintmask 01101110
          -91 callsubr
          hintmask 10101110
          -61 -598 -62 callgsubr
          hintmask 01101110
          -82 callgsubr
          hintmask 10101110
          -100 callgsubr
          vhcurveto
          endchar
        </CharString>
        <CharString name="ucircumflex">
          -50 callsubr
          82 135 -66 66 -3 callsubr
          hintmask 01110110
          137 -9 callsubr
          hintmask 01101110
          56 69 rlineto
          hintmask 10110110
          -102 callgsubr
          -1 6 callgsubr
          hintmask 01110110
          -82 callgsubr
          hintmask 10110110
          -100 callgsubr
          vhcurveto
          endchar
        </CharString>
        <CharString name="udieresis">
          -50 callsubr
          99 118 8 callgsubr
          hintmask 00000000
          hintmask 01110110
          140 -59 callgsubr
          hintmask 10111001
          -108 6 callgsubr
          hintmask 01111001
          -82 callgsubr
          hintmask 10111001
          -100 callgsubr
          vhcurveto
          endchar
        </CharString>
        <CharString name="ugrave">
          -19 callgsubr
          251 -22 callgsubr
          hintmask 10111100
          99 -732 -87 callsubr
        </CharString>
        <CharString name="uhorn">
          3 callsubr
          -3 callsubr
          -38 158 hintmask 00000000
          hintmask 01011101
          -10 callgsubr
          hintmask 10011110
          -104 -304 hlineto
          -100 callgsubr
          78 52 38 43 34 vhcurveto
          7 hlineto
          hintmask 01101110
          10 -69 rlineto
          117 467 hlineto
          hintmask 01101101
          -35 callgsubr
          endchar
        </CharString>
        <CharString name="uhungarumlaut">
          -19 callgsubr
          164 -15 callsubr
          hintmask 10111100
          -176 -735 -87 callsubr
        </CharString>
        <CharString name="umacron">
          -50 callsubr
          105 88 127 callsubr
          151 611 -44 callsubr
          hintmask 10111100
          91 -711 -87 callsubr
        </CharString>
        <CharString name="underscore">
          -160 98 hstem
          0 556 vstem
          -160 vmoveto
          556 98 -556 hlineto
          endchar
        </CharString>
        <CharString name="underscoredbl">
          -131 -312 91 68 91 hstem
          0 552 vstem
          -153 vmoveto
          552 91 -552 hlineto
          -250 vmoveto
          552 91 -552 hlineto
          endchar
        </CharString>
        <CharString name="uni00A0">
          -405 endchar
        </CharString>
        <CharString name="uni00AD">
          58 callgsubr
        </CharString>
        <CharString name="uni00B2">
          -350 329 75 225 69 hstemhm
          41 122 callsubr
          hintmask 00000000
          hintmask 11100000
          41 329 56 callgsubr
          hintmask 11011000
          22 callsubr
          hintmask 11100000
          63 callgsubr
          endchar
        </CharString>
        <CharString name="uni00B3">
          -350 325 68 87 69 35 114 -68 68 hstemhm
          37 47 callsubr
          hintmask 0000000000000000
          hintmask 1101100010000000
          168 325 rmoveto
          75 53 39 66 hvcurveto
          hintmask 1101001000000000
          66 callsubr
          hintmask 1101010100000000
          -1 callsubr
          hintmask 1110010010000000
          -12 83 8 vlineto
          hintmask 1101010100000000
          7 callgsubr
          hintmask 1101001000000000
          -34 -69 hlineto
          hintmask 1101100010000000
          -12 callsubr
          -83 -7 vlineto
          -67 46 -43 85 vhcurveto
          endchar
        </CharString>
        <CharString name="uni00B5">
          -43 callsubr
        </CharString>
        <CharString name="uni00B9">
          -350 330 75 185 55 41 -20 hstem
          137 83 vstem
          55 330 rmoveto
          239 75 -74 281 -43 hlineto
          -35 -20 -53 -18 -34 -3 rrcurveto
          -55 82 -185 -82 vlineto
          endchar
        </CharString>
        <CharString name="uni0162">
          -72 68 callgsubr
          54 -21 561 125 hstemhm
          233 145 -45 107 hintmask 10111100
          378 hmoveto
          18 callsubr
          -561 vlineto
          hintmask 10111010
          28 hlineto
          -11 -77 rlineto
          -24 callsubr
          hintmask 01111100
          -49 vlineto
          hintmask 10111010
          -10 callsubr
          hintmask 10111100
          5 33 rlineto
          endchar
        </CharString>
        <CharString name="uni0163">
          -350 68 callgsubr
          21 112 -91 -21 426 112 hstemhm
          74 137 -7 107 hintmask 00000000
          hintmask 10001101
          213 -33 rmoveto
          3 21 29 1 37 7 20 8 rlinecurve
          hintmask 10010101
          96 vlineto
          hintmask 10010110
          -48 hlineto
          99 callgsubr
          271 91 112 -91 148 -111 vlineto
          -23 -148 rlineto
          -66 -112 63 -285 hlineto
          hintmask 10101110
          -48 15 -49 44 -26 vhcurveto
          hintmask 10101101
          -12 -83 rlineto
          -24 callsubr
          hintmask 01001110
          -49 vlineto
          hintmask 10001101
          -10 callsubr
          endchar
        </CharString>
        <CharString name="uni018F">
          75 -12 117 168 106 203 116 hstem
          42 152 364 152 vstem
          376 -12 rmoveto
          225 109 111 240 247 -115 112 -227 -191 -135 -79 -173 hvcurveto
          143 hlineto
          95 76 41 103 131 59 -67 -136 6 vhcurveto
          -518 -48 hlineto
          -239 117 -104 217 vhcurveto
          2 117 rmoveto
          -109 -75 47 121 hvcurveto
          364 hlineto
          -116 -13 -52 -52 -115 hhcurveto
          endchar
        </CharString>
        <CharString name="uni019D">
          75 callsubr
          70 80 callsubr
          420 vlineto
          -97 callsubr
          -713 hlineto
          -23 callgsubr
          -8 23 43 -8 32 hhcurveto
          endchar
        </CharString>
        <CharString name="uni01C4">
          650 78 callgsubr
          47 135 -25 callsubr
          318 149 vstem
          967 733 -101 callsubr
          -794 -868 rmoveto
          -63 callsubr
          -284 hlineto
          672 -686 rmoveto
          -73 callsubr
          -527 55 -59 callsubr
          endchar
        </CharString>
        <CharString name="uni01C5">
          91 callsubr
          -98 135 -14 callsubr
          318 149 hintmask 00000000
          hintmask 10101110
          911 588 -101 callsubr
          -738 -723 rmoveto
          284 hlineto
          204 124 109 234 hvcurveto
          hintmask 01110110
          234 -124 109 -204 vhcurveto
          -284 hlineto
          145 -563 -59 callsubr
          hintmask 10110110
          392 -123 rmoveto
          -84 callsubr
          endchar
        </CharString>
        <CharString name="uni01C6">
          85 callsubr
          50 135 -20 callgsubr
          553 600 -101 callsubr
          -62 -723 rmoveto
          -84 callsubr
          hintmask 10001111
          -341 46 -24 callgsubr
          endchar
        </CharString>
        <CharString name="uni01C7">
          484 -12 122 -110 126 560 -20 -14 callsubr
          424 84 callsubr
          hintmask 01111100
          67 hmoveto
          6 callsubr
          hintmask 10111100
          805 -698 19 callsubr
        </CharString>
        <CharString name="uni01C8">
          206 70 callsubr
          70 126 400 -20 93 124 -37 -20 -14 callsubr
          470 137 hintmask 11110110
          682 21 callsubr
          -615 -723 rmoveto
          515 126 -370 hlineto
          hintmask 11101110
          560 -145 vlineto
          614 -868 -85 callsubr
        </CharString>
        <CharString name="uni01C9">
          72 callsubr
          93 124 132 callgsubr
          hmoveto
          137 723 -137 hlineto
          278 -124 -2 callgsubr
          -1 -905 -85 callsubr
        </CharString>
        <CharString name="uni01CA">
          595 -12 122 -110 236 -215 74 callsubr
          hstemhm
          49 callgsubr
          92 84 callsubr
          hintmask 00000000
          hintmask 00111111
          -7 callgsubr
          hintmask 10011111
          916 -698 -55 callsubr
          hintmask 01011111
          41 -144 -43 vlineto
          hintmask 10011111
          37 callsubr
        </CharString>
        <CharString name="uni01CB">
          317 72 callsubr
          93 87 -87 124 hstemhm
          49 callgsubr
          138 137 hintmask 11101111
          793 21 callsubr
          -726 -723 rmoveto
          141 379 hlineto
          18 -3 42 0 vhcurveto
          5 3 rlineto
          0 19 -38 20 -28 vhcurveto
          265 -376 rlineto
          141 hlineto
          hintmask 11110111
          116 callgsubr
          -379 vlineto
          -69 callgsubr
          hlineto
          725 -868 -85 callsubr
        </CharString>
        <CharString name="uni01CC">
          206 70 callsubr
          91 38 callsubr
          -12 -20 93 124 13 callgsubr
          139 137 hintmask 11011111
          682 21 callsubr
          -611 -723 rmoveto
          137 304 hlineto
          hintmask 11101111
          -89 callsubr
          -78 -52 -38 -43 -34 vhcurveto
          -7 hlineto
          hintmask 11011111
          -10 69 133 callsubr
          610 -708 -85 callsubr
        </CharString>
        <CharString name="uni01CD">
          -79 callsubr
          47 135 hstem
          2 718 vstem
          300 733 -101 callsubr
          -192 -868 -104 callsubr
        </CharString>
        <CharString name="uni01CE">
          -66 callgsubr
          50 135 100 callsubr
          217 588 -101 callsubr
          81 -42 callgsubr
          hintmask 01111011
          -106 callsubr
          hintmask 10111101
          -105 callsubr
          endchar
        </CharString>
        <CharString name="uni01CF">
          27 callgsubr
          67 135 -25 callsubr
          vstem
          78 733 -101 callsubr
          95 -868 -37 callgsubr
        </CharString>
        <CharString name="uni01D0">
          48 callsubr
          82 135 50 callgsubr
          78 588 -101 callsubr
          99 132 callsubr
          endchar
        </CharString>
        <CharString name="uni01D1">
          95 133 callgsubr
          -26 callsubr
          328 733 -101 callsubr
          167 -880 -107 callgsubr
          endchar
        </CharString>
        <CharString name="uni01D2">
          -67 callgsubr
          50 135 -9 callgsubr
          245 588 -101 callsubr
          166 -85 callgsubr
        </CharString>
        <CharString name="uni01D3">
          -16 callgsubr
          67 135 48 callgsubr
          300 733 -101 callsubr
          166 -880 rmoveto
          -103 callgsubr
          endchar
        </CharString>
        <CharString name="uni01D4">
          -50 callsubr
          82 135 127 callsubr
          243 588 -101 callsubr
          hintmask 10111100
          105 -735 -87 callsubr
        </CharString>
        <CharString name="uni01D5">
          -16 callgsubr
          84 118 55 88 -14 callsubr
          -15 -20 callsubr
          -16 145 hintmask 00000000
          hintmask 11110110
          208 923 -44 callsubr
          -11 -261 -97 callgsubr
          hintmask 11111001
          -47 -880 rmoveto
          -103 callgsubr
          endchar
        </CharString>
        <CharString name="uni01D6">
          -50 callsubr
          99 118 55 88 8 callgsubr
          hintmask 0000000000000000
          hintmask 0111101100000000
          151 778 -44 callsubr
          -11 -261 -97 callgsubr
          hintmask 1011110010000000
          -108 6 callgsubr
          hintmask 0111110010000000
          -82 callgsubr
          hintmask 1011110010000000
          -100 callgsubr
          vhcurveto
          endchar
        </CharString>
        <CharString name="uni01D7">
          -16 callgsubr
          84 118 35 132 -14 callsubr
          -15 -20 callsubr
          -16 145 hintmask 11111001
          308 903 -102 callsubr
          hintmask 11110110
          -190 -285 -97 callgsubr
          hintmask 11111001
          -47 -880 rmoveto
          -103 callgsubr
          endchar
        </CharString>
        <CharString name="uni01D8">
          -50 callsubr
          99 118 35 132 8 callgsubr
          hintmask 0111110010000000
          251 758 -102 callsubr
          hintmask 0111101100000000
          -190 -285 -97 callgsubr
          hintmask 1011110010000000
          -108 6 callgsubr
          hintmask 0111110010000000
          -82 callgsubr
          hintmask 1011110010000000
          -100 callgsubr
          vhcurveto
          endchar
        </CharString>
        <CharString name="uni01D9">
          -16 callgsubr
          84 118 32 135 -14 callsubr
          -15 -20 callsubr
          -16 145 hintmask 11111001
          300 900 -101 callsubr
          hintmask 11110110
          3 -285 -97 callgsubr
          hintmask 11111001
          -47 -880 rmoveto
          -103 callgsubr
          endchar
        </CharString>
        <CharString name="uni01DA">
          -50 callsubr
          99 118 32 135 8 callgsubr
          hintmask 0111110010000000
          243 755 -101 callsubr
          hintmask 0111101100000000
          3 -285 -97 callgsubr
          hintmask 1011110010000000
          -108 6 callgsubr
          hintmask 0111110010000000
          -82 callgsubr
          hintmask 1011110010000000
          -100 callgsubr
          vhcurveto
          endchar
        </CharString>
        <CharString name="uni01DB">
          -16 callgsubr
          84 118 35 132 -14 callsubr
          -15 -20 callsubr
          -16 145 hintmask 11111001
          308 903 -101 callgsubr
          hintmask 11110110
          -3 -282 -97 callgsubr
          hintmask 11111001
          -47 -880 rmoveto
          -103 callgsubr
          endchar
        </CharString>
        <CharString name="uni01DC">
          -50 callsubr
          99 118 35 132 8 callgsubr
          hintmask 0111110010000000
          251 758 -101 callgsubr
          hintmask 0111101100000000
          -3 -282 -97 callgsubr
          hintmask 1011110010000000
          -108 6 callgsubr
          hintmask 0111110010000000
          -82 callgsubr
          hintmask 1011110010000000
          -100 callgsubr
          vhcurveto
          endchar
        </CharString>
        <CharString name="uni01EA">
          95 -182 69 101 -71 callgsubr
          hstem
          10 callsubr
          201 105 91 149 vstem
          737 343 rmoveto
          242 -132 113 -216 -215 -132 -113 -242 -242 132 -113 215 11 11 0 1 11 vhcurveto
          -17 -21 -13 -26 76 callgsubr
          28 19 27 13 14 hvcurveto
          131 42 77 110 184 vvcurveto
          -546 -15 rmoveto
          30 vlineto
          136 66 81 132 133 66 -81 -136 vhcurveto
          -30 vlineto
          -7 callsubr
          endchar
        </CharString>
        <CharString name="uni01EB">
          -72 -182 69 101 112 326 112 hstem
          38 141 114 105 34 141 vstem
          573 263 rmoveto
          189 -89 86 -179 -178 -89 -64 callsubr
          89 -86 178 vhcurveto
          17 hlineto
          -16 -21 -13 -25 76 callgsubr
          27 18 27 13 15 hvcurveto
          96 34 48 83 139 vvcurveto
          -394 -8 rmoveto
          16 vlineto
          101 35 54 91 92 35 -54 -101 vhcurveto
          -16 vlineto
          31 callgsubr
          endchar
        </CharString>
        <CharString name="uni01F1">
          650 78 callgsubr
          -25 callsubr
          318 149 vstem
          52 callsubr
          672 -686 rmoveto
          -73 callsubr
          -527 55 -59 callsubr
          endchar
        </CharString>
        <CharString name="uni01F2">
          91 callsubr
          -14 callsubr
          318 149 hintmask 10111100
          52 callsubr
          hintmask 01111100
          145 -563 -59 callsubr
          hintmask 10111100
          392 -123 rmoveto
          -84 callsubr
          endchar
        </CharString>
        <CharString name="uni01F3">
          85 callsubr
          185 -20 -20 callgsubr
          385 12 rmoveto
          -84 callsubr
          hintmask 10001111
          -341 46 -24 callgsubr
          endchar
        </CharString>
        <CharString name="uni01F4">
          -30 callgsubr
          38 132 17 callsubr
          hintmask 10111101
          549 865 30 callgsubr
          -77 -482 -86 callsubr
        </CharString>
        <CharString name="uni01F5">
          -28 callsubr
          53 132 -28 callgsubr
          195 136 -75 138 -134 134 hintmask 1111100110000000
          253 591 -102 callsubr
          hintmask 1111110001000000
          -177 -74 callsubr
        </CharString>
        <CharString name="uni0200">
          -79 callsubr
          50 132 hstem
          2 718 vstem
          241 -38 callsubr
          283 -129 -101 callgsubr
          -306 -865 -104 callsubr
        </CharString>
        <CharString name="uni0201">
          -12 callgsubr
          158 -22 callgsubr
          283 -129 -101 callgsubr
          -33 -732 -99 callsubr
          hintmask 01111011
          -106 callsubr
          hintmask 10111101
          -105 callsubr
          endchar
        </CharString>
        <CharString name="uni0202">
          -79 callsubr
          93 89 hstem
          2 718 vstem
          199 -65 callgsubr
          -197 -90 callsubr
          endchar
        </CharString>
        <CharString name="uni0203">
          -66 callgsubr
          48 137 -89 89 -58 callgsubr
          hintmask 0000000000000000
          hintmask 1011101010000000
          116 98 callsubr
          hintmask 1011011010000000
          4 callsubr
          hintmask 1011101010000000
          -30 callsubr
          hintmask 1011011010000000
          64 -46 73 -116 vhcurveto
          hintmask 1011101010000000
          -116 -45 -73 -64 hvcurveto
          hintmask 1011011010000000
          76 -42 callsubr
          hintmask 0111010110000000
          -106 callsubr
          hintmask 1011011010000000
          -105 callsubr
          endchar
        </CharString>
        <CharString name="uni0204">
          -72 callsubr
          50 132 -25 callsubr
          vstem
          214 -38 callsubr
          283 -129 -101 callgsubr
          -214 -865 -86 callgsubr
        </CharString>
        <CharString name="uni0205">
          -52 callgsubr
          53 132 hstem
          2 callsubr
          vstem
          158 -22 callgsubr
          283 -129 -101 callgsubr
          63 -732 -104 callgsubr
        </CharString>
        <CharString name="uni0206">
          -72 callsubr
          93 114 callgsubr
          172 -65 callgsubr
          -105 -731 -86 callgsubr
        </CharString>
        <CharString name="uni0207">
          -52 callgsubr
          48 137 -89 89 65 callgsubr
          hintmask 00000000
          hintmask 11110110
          116 98 callsubr
          hintmask 11101110
          4 callsubr
          hintmask 11110110
          -30 callsubr
          hintmask 11101110
          64 -46 73 -116 vhcurveto
          hintmask 11110110
          -116 -45 -73 -64 hvcurveto
          hintmask 11101110
          172 -598 -104 callgsubr
        </CharString>
</ttFont>
